<?xml version="1.0" standalone="no"?>
<!DOCTYPE svg PUBLIC "-//W3C//DTD SVG 1.1//EN" "http://www.w3.org/Graphics/SVG/1.1/DTD/svg11.dtd" >
<svg xmlns="http://www.w3.org/2000/svg" xmlns:xlink="http://www.w3.org/1999/xlink" version="1.1">
<metadata>
Created by FontForge 20190801 at Tue Jul 26 18:21:17 2011
 By Unknown
Copyright (c) 2008 by . All rights reserved.
</metadata>
<defs>
<font id="JasperPlCaps" horiz-adv-x="704" >
  <font-face 
    font-family="JasperPl Caps"
    font-weight="400"
    font-variant="small-caps"
    font-stretch="normal"
    units-per-em="1000"
    panose-1="2 0 5 6 8 0 0 2 0 4"
    ascent="800"
    descent="-200"
    x-height="550"
    cap-height="720"
    bbox="-9.5464 -225 821 933.982"
    underline-thickness="50"
    underline-position="-100"
    stemh="40"
    stemv="118"
    unicode-range="U+0020-FB02"
  />
<missing-glyph 
d="M552 0h-400c-33 0 -52 19 -52 52v560c0 33 19 52 52 52h400c33 0 52 -19 52 -52v-560c0 -33 -19 -52 -52 -52zM544 100l-158 232l158 232c23 34 -27 66 -50 32l-142 -214l-143 218c-20 31 -70 -2 -50 -32l159 -236l-159 -236c-20 -30 30 -63 50 -32l143 217l142 -213
c23 -34 73 -2 50 32z" />
    <glyph glyph-name="fi" unicode="fi" horiz-adv-x="570" 
d="M213 0h-181c-4 0 -5 6 -1 8c24 15 30 25 30 48v438c0 23 -6 33 -30 48c-4 2 -3 8 1 8h260c6 0 10 -2 11 -8l12 -90c1 -6 -1 -11 -5 -11c-3 0 -6 3 -8 6l-12 19c-23 36 -51 46 -86 46h-6c-13 0 -19 -7 -19 -24v-121c0 -31 5 -38 27 -38h1c16 0 36 7 44 35l6 20
c2 7 5 13 11 13c5 0 8 -5 8 -13v-151c0 -9 -2 -14 -8 -14s-8 7 -11 14l-7 22c-9 27 -25 34 -43 34h-1c-22 0 -27 -6 -27 -37v-196c0 -23 8 -34 35 -48c4 -2 3 -8 -1 -8zM509 494v-438c0 -23 6 -33 30 -48c4 -2 3 -8 -1 -8h-176c-4 0 -5 6 -1 8c24 15 30 25 30 48v438
c0 23 -6 33 -30 48c-4 2 -3 8 1 8h176c4 0 5 -6 1 -8c-24 -15 -30 -25 -30 -48z" />
    <glyph glyph-name="fl" unicode="fl" 
d="M213 0h-181c-4 0 -5 6 -1 8c24 15 30 25 30 48v438c0 23 -6 33 -30 48c-4 2 -3 8 1 8h260c6 0 10 -2 11 -8l12 -90c1 -6 -1 -11 -5 -11c-3 0 -6 3 -8 6l-12 19c-23 36 -51 46 -86 46h-6c-13 0 -19 -7 -19 -24v-121c0 -31 5 -38 27 -38h1c16 0 36 7 44 35l6 20
c2 7 5 13 11 13c5 0 8 -5 8 -13v-151c0 -9 -2 -14 -8 -14s-8 7 -11 14l-7 22c-9 27 -25 34 -43 34h-1c-22 0 -27 -6 -27 -37v-196c0 -23 8 -34 35 -48c4 -2 3 -8 -1 -8zM509 494v-432c0 -17 4 -23 19 -23h15c36 0 64 13 93 58l18 27c2 3 5 6 9 6c5 0 8 -4 6 -11l-29 -111
c-1 -6 -4 -8 -10 -8h-268c-4 0 -5 6 -1 8c24 15 30 25 30 48v438c0 23 -6 33 -30 48c-4 2 -3 8 1 8h176c4 0 5 -6 1 -8c-24 -15 -30 -25 -30 -48z" />
    <glyph glyph-name=".notdef" 
d="M552 0h-400c-33 0 -52 19 -52 52v560c0 33 19 52 52 52h400c33 0 52 -19 52 -52v-560c0 -33 -19 -52 -52 -52zM544 100l-158 232l158 232c23 34 -27 66 -50 32l-142 -214l-143 218c-20 31 -70 -2 -50 -32l159 -236l-159 -236c-20 -30 30 -63 50 -32l143 217l142 -213
c23 -34 73 -2 50 32z" />
    <glyph glyph-name="space" unicode=" " horiz-adv-x="130" 
 />
    <glyph glyph-name="Eth" unicode="&#xd0;" 
d="M552 0h-400c-33 0 -52 19 -52 52v560c0 33 19 52 52 52h400c33 0 52 -19 52 -52v-560c0 -33 -19 -52 -52 -52zM544 100l-158 232l158 232c23 34 -27 66 -50 32l-142 -214l-143 218c-20 31 -70 -2 -50 -32l159 -236l-159 -236c-20 -30 30 -63 50 -32l143 217l142 -213
c23 -34 73 -2 50 32z" />
    <glyph glyph-name="eth" unicode="&#xf0;" 
d="M552 0h-400c-33 0 -52 19 -52 52v560c0 33 19 52 52 52h400c33 0 52 -19 52 -52v-560c0 -33 -19 -52 -52 -52zM544 100l-158 232l158 232c23 34 -27 66 -50 32l-142 -214l-143 218c-20 31 -70 -2 -50 -32l159 -236l-159 -236c-20 -30 30 -63 50 -32l143 217l142 -213
c23 -34 73 -2 50 32z" />
    <glyph glyph-name="Scaron" unicode="&#x160;" 
d="M552 0h-400c-33 0 -52 19 -52 52v560c0 33 19 52 52 52h400c33 0 52 -19 52 -52v-560c0 -33 -19 -52 -52 -52zM544 100l-158 232l158 232c23 34 -27 66 -50 32l-142 -214l-143 218c-20 31 -70 -2 -50 -32l159 -236l-159 -236c-20 -30 30 -63 50 -32l143 217l142 -213
c23 -34 73 -2 50 32z" />
    <glyph glyph-name="scaron" unicode="&#x161;" 
d="M552 0h-400c-33 0 -52 19 -52 52v560c0 33 19 52 52 52h400c33 0 52 -19 52 -52v-560c0 -33 -19 -52 -52 -52zM544 100l-158 232l158 232c23 34 -27 66 -50 32l-142 -214l-143 218c-20 31 -70 -2 -50 -32l159 -236l-159 -236c-20 -30 30 -63 50 -32l143 217l142 -213
c23 -34 73 -2 50 32z" />
    <glyph glyph-name="Yacute" unicode="&#xdd;" 
d="M552 0h-400c-33 0 -52 19 -52 52v560c0 33 19 52 52 52h400c33 0 52 -19 52 -52v-560c0 -33 -19 -52 -52 -52zM544 100l-158 232l158 232c23 34 -27 66 -50 32l-142 -214l-143 218c-20 31 -70 -2 -50 -32l159 -236l-159 -236c-20 -30 30 -63 50 -32l143 217l142 -213
c23 -34 73 -2 50 32z" />
    <glyph glyph-name="yacute" unicode="&#xfd;" 
d="M552 0h-400c-33 0 -52 19 -52 52v560c0 33 19 52 52 52h400c33 0 52 -19 52 -52v-560c0 -33 -19 -52 -52 -52zM544 100l-158 232l158 232c23 34 -27 66 -50 32l-142 -214l-143 218c-20 31 -70 -2 -50 -32l159 -236l-159 -236c-20 -30 30 -63 50 -32l143 217l142 -213
c23 -34 73 -2 50 32z" />
    <glyph glyph-name="Thorn" unicode="&#xde;" 
d="M552 0h-400c-33 0 -52 19 -52 52v560c0 33 19 52 52 52h400c33 0 52 -19 52 -52v-560c0 -33 -19 -52 -52 -52zM544 100l-158 232l158 232c23 34 -27 66 -50 32l-142 -214l-143 218c-20 31 -70 -2 -50 -32l159 -236l-159 -236c-20 -30 30 -63 50 -32l143 217l142 -213
c23 -34 73 -2 50 32z" />
    <glyph glyph-name="thorn" unicode="&#xfe;" 
d="M552 0h-400c-33 0 -52 19 -52 52v560c0 33 19 52 52 52h400c33 0 52 -19 52 -52v-560c0 -33 -19 -52 -52 -52zM544 100l-158 232l158 232c23 34 -27 66 -50 32l-142 -214l-143 218c-20 31 -70 -2 -50 -32l159 -236l-159 -236c-20 -30 30 -63 50 -32l143 217l142 -213
c23 -34 73 -2 50 32z" />
    <glyph glyph-name="Zcaron" unicode="&#x17d;" 
d="M552 0h-400c-33 0 -52 19 -52 52v560c0 33 19 52 52 52h400c33 0 52 -19 52 -52v-560c0 -33 -19 -52 -52 -52zM544 100l-158 232l158 232c23 34 -27 66 -50 32l-142 -214l-143 218c-20 31 -70 -2 -50 -32l159 -236l-159 -236c-20 -30 30 -63 50 -32l143 217l142 -213
c23 -34 73 -2 50 32z" />
    <glyph glyph-name="zcaron" unicode="&#x17e;" 
d="M552 0h-400c-33 0 -52 19 -52 52v560c0 33 19 52 52 52h400c33 0 52 -19 52 -52v-560c0 -33 -19 -52 -52 -52zM544 100l-158 232l158 232c23 34 -27 66 -50 32l-142 -214l-143 218c-20 31 -70 -2 -50 -32l159 -236l-159 -236c-20 -30 30 -63 50 -32l143 217l142 -213
c23 -34 73 -2 50 32z" />
    <glyph glyph-name="onehalf" unicode="&#xbd;" 
d="M552 0h-400c-33 0 -52 19 -52 52v560c0 33 19 52 52 52h400c33 0 52 -19 52 -52v-560c0 -33 -19 -52 -52 -52zM544 100l-158 232l158 232c23 34 -27 66 -50 32l-142 -214l-143 218c-20 31 -70 -2 -50 -32l159 -236l-159 -236c-20 -30 30 -63 50 -32l143 217l142 -213
c23 -34 73 -2 50 32z" />
    <glyph glyph-name="onequarter" unicode="&#xbc;" 
d="M552 0h-400c-33 0 -52 19 -52 52v560c0 33 19 52 52 52h400c33 0 52 -19 52 -52v-560c0 -33 -19 -52 -52 -52zM544 100l-158 232l158 232c23 34 -27 66 -50 32l-142 -214l-143 218c-20 31 -70 -2 -50 -32l159 -236l-159 -236c-20 -30 30 -63 50 -32l143 217l142 -213
c23 -34 73 -2 50 32z" />
    <glyph glyph-name="onesuperior" unicode="&#xb9;" 
d="M552 0h-400c-33 0 -52 19 -52 52v560c0 33 19 52 52 52h400c33 0 52 -19 52 -52v-560c0 -33 -19 -52 -52 -52zM544 100l-158 232l158 232c23 34 -27 66 -50 32l-142 -214l-143 218c-20 31 -70 -2 -50 -32l159 -236l-159 -236c-20 -30 30 -63 50 -32l143 217l142 -213
c23 -34 73 -2 50 32z" />
    <glyph glyph-name="threequarters" unicode="&#xbe;" 
d="M552 0h-400c-33 0 -52 19 -52 52v560c0 33 19 52 52 52h400c33 0 52 -19 52 -52v-560c0 -33 -19 -52 -52 -52zM544 100l-158 232l158 232c23 34 -27 66 -50 32l-142 -214l-143 218c-20 31 -70 -2 -50 -32l159 -236l-159 -236c-20 -30 30 -63 50 -32l143 217l142 -213
c23 -34 73 -2 50 32z" />
    <glyph glyph-name="threesuperior" unicode="&#xb3;" 
d="M552 0h-400c-33 0 -52 19 -52 52v560c0 33 19 52 52 52h400c33 0 52 -19 52 -52v-560c0 -33 -19 -52 -52 -52zM544 100l-158 232l158 232c23 34 -27 66 -50 32l-142 -214l-143 218c-20 31 -70 -2 -50 -32l159 -236l-159 -236c-20 -30 30 -63 50 -32l143 217l142 -213
c23 -34 73 -2 50 32z" />
    <glyph glyph-name="twosuperior" unicode="&#xb2;" 
d="M552 0h-400c-33 0 -52 19 -52 52v560c0 33 19 52 52 52h400c33 0 52 -19 52 -52v-560c0 -33 -19 -52 -52 -52zM544 100l-158 232l158 232c23 34 -27 66 -50 32l-142 -214l-143 218c-20 31 -70 -2 -50 -32l159 -236l-159 -236c-20 -30 30 -63 50 -32l143 217l142 -213
c23 -34 73 -2 50 32z" />
    <glyph glyph-name="brokenbar" unicode="&#xa6;" 
d="M552 0h-400c-33 0 -52 19 -52 52v560c0 33 19 52 52 52h400c33 0 52 -19 52 -52v-560c0 -33 -19 -52 -52 -52zM544 100l-158 232l158 232c23 34 -27 66 -50 32l-142 -214l-143 218c-20 31 -70 -2 -50 -32l159 -236l-159 -236c-20 -30 30 -63 50 -32l143 217l142 -213
c23 -34 73 -2 50 32z" />
    <glyph glyph-name="minus" unicode="&#x2212;" 
d="M552 0h-400c-33 0 -52 19 -52 52v560c0 33 19 52 52 52h400c33 0 52 -19 52 -52v-560c0 -33 -19 -52 -52 -52zM544 100l-158 232l158 232c23 34 -27 66 -50 32l-142 -214l-143 218c-20 31 -70 -2 -50 -32l159 -236l-159 -236c-20 -30 30 -63 50 -32l143 217l142 -213
c23 -34 73 -2 50 32z" />
    <glyph glyph-name="multiply" unicode="&#xd7;" 
d="M552 0h-400c-33 0 -52 19 -52 52v560c0 33 19 52 52 52h400c33 0 52 -19 52 -52v-560c0 -33 -19 -52 -52 -52zM544 100l-158 232l158 232c23 34 -27 66 -50 32l-142 -214l-143 218c-20 31 -70 -2 -50 -32l159 -236l-159 -236c-20 -30 30 -63 50 -32l143 217l142 -213
c23 -34 73 -2 50 32z" />
    <glyph glyph-name="exclam" unicode="!" horiz-adv-x="240" 
d="M50 56c0 35 25 64 70 64s70 -29 70 -64s-25 -63 -70 -63s-70 28 -70 63zM149 200h-58c-7 0 -11 4 -11 11l-26 453c-1 23 -7 36 -21 48c-3 3 -3 8 1 8h172c4 0 4 -5 1 -8c-14 -12 -20 -25 -21 -48l-26 -453c0 -7 -4 -11 -11 -11z" />
    <glyph glyph-name="quotedbl" unicode="&#x22;" horiz-adv-x="365" 
d="M162 652l-42 -179c-2 -7 -8 -10 -17 -10s-16 3 -18 10l-42 179c-10 43 15 78 59 78c45 0 70 -35 60 -78zM322 652l-42 -179c-2 -7 -8 -10 -17 -10s-16 3 -18 10l-42 179c-10 43 15 78 59 78c45 0 70 -35 60 -78z" />
    <glyph glyph-name="numbersign" unicode="#" horiz-adv-x="605" 
d="M168 0h-46c-4 0 -6 2 -5 6l25 180h-96c-4 0 -6 2 -6 6v42c0 4 2 6 6 6h103l32 226h-135c-4 0 -6 2 -6 6v42c0 4 2 6 6 6h142l28 194c1 4 3 6 7 6h46c4 0 6 -2 5 -6l-28 -194h152l28 194c1 4 3 6 7 6h46c4 0 6 -2 5 -6l-28 -194h103c4 0 6 -2 6 -6v-42c0 -4 -2 -6 -6 -6
h-110l-32 -226h142c4 0 6 -2 6 -6v-42c0 -4 -2 -6 -6 -6h-149l-25 -180c-1 -4 -3 -6 -7 -6h-46c-4 0 -6 2 -5 6l25 180h-152l-25 -180c-1 -4 -3 -6 -7 -6zM239 466l-32 -226h152l32 226h-152z" />
    <glyph glyph-name="dollar" unicode="$" horiz-adv-x="401" 
d="M57 9l8 178c0 9 10 11 13 1c19 -76 65 -130 123 -130c32 0 52 22 52 68c0 26 -11 57 -35 94l-120 187c-32 49 -56 104 -56 159c0 88 54 141 136 141v107c0 4 2 6 6 6h42c4 0 6 -2 6 -6v-115c29 -9 50 -23 73 -23c12 0 21 5 26 15c3 6 10 5 10 -1l-6 -155
c0 -8 -10 -10 -13 -1c-18 57 -60 126 -127 126c-30 0 -51 -22 -51 -53c0 -29 18 -58 34 -84l125 -194c32 -50 59 -113 59 -170c0 -107 -74 -147 -142 -147v-116c0 -4 -2 -6 -6 -6h-42c-4 0 -6 2 -6 6v122c-29 7 -47 18 -65 18c-17 0 -27 -9 -32 -27c-2 -7 -12 -6 -12 0z" />
    <glyph glyph-name="percent" unicode="%" horiz-adv-x="725" 
d="M238 -35l-39 14c-4 2 -5 4 -4 8l280 765c2 3 4 5 8 3l39 -14c4 -2 5 -4 4 -8l-280 -765c-2 -3 -4 -5 -8 -3zM550 33c22 0 35 35 35 142v88c0 107 -13 136 -35 136c-21 0 -34 -29 -34 -136v-88c0 -107 13 -142 34 -142zM550 442c102 0 135 -108 135 -226
s-33 -226 -135 -226c-101 0 -134 108 -134 226s33 226 134 226zM174 321c22 0 35 35 35 142v88c0 107 -13 136 -35 136c-21 0 -34 -29 -34 -136v-88c0 -107 13 -142 34 -142zM174 730c102 0 135 -108 135 -226s-33 -226 -135 -226c-101 0 -134 108 -134 226s33 226 134 226z
" />
    <glyph glyph-name="ampersand" unicode="&#x26;" horiz-adv-x="597" 
d="M350 393c16 21 48 32 75 32c86 0 137 -63 137 -152c0 -66 -27 -124 -69 -177c-1 -1 -5 -9 -5 -9c0 -18 49 -57 91 -57c17 0 30 2 47 2c8 0 11 -2 11 -10c0 -24 -89 -38 -111 -38c-53 0 -79 12 -106 28c-13 8 -29 -1 -29 -1c-48 -20 -90 -30 -136 -30
c-124 0 -217 94 -217 220c0 76 37 139 99 185c-30 55 -49 114 -49 178c0 96 53 172 153 172c47 0 66 -17 102 -17c26 0 48 13 50 13s6 0 6 -4v-146c0 -12 -11 -15 -17 -3c-19 42 -64 111 -119 111s-72 -45 -72 -94c0 -136 120 -297 226 -435c20 -26 28 -29 29 -29
c2 0 4 0 7 5c19 33 24 75 24 112c-1 66 -51 138 -125 138c-2 0 -4 3 -2 6zM150 208c0 -74 42 -182 138 -182c30 0 72 14 72 31c0 2 -2 8 -7 13c-52 61 -109 136 -178 244c-17 -28 -25 -58 -25 -106z" />
    <glyph glyph-name="quotesingle" unicode="'" horiz-adv-x="205" 
d="M162 652l-42 -179c-2 -7 -8 -10 -17 -10s-16 3 -18 10l-42 179c-10 43 15 78 59 78c45 0 70 -35 60 -78z" />
    <glyph glyph-name="parenleft" unicode="(" horiz-adv-x="283" 
d="M150 360c0 -235 62 -359 128 -414l-10 -16c-120 60 -218 198 -218 430s98 370 218 430l10 -16c-66 -55 -128 -179 -128 -414z" />
    <glyph glyph-name="parenright" unicode=")" horiz-adv-x="283" 
d="M133 360c0 235 -62 359 -128 414l10 16c120 -60 218 -198 218 -430s-98 -370 -218 -430l-10 16c66 55 128 179 128 414z" />
    <glyph glyph-name="asterisk" unicode="*" horiz-adv-x="454" 
d="M226 730c39 0 59 -12 52 -41l-29 -123l109 65c26 16 44 1 55 -35c12 -37 6 -59 -24 -62l-126 -11l97 -83c21 -19 13 -39 -18 -62s-54 -25 -66 3l-49 115l-49 -116c-12 -27 -34 -26 -65 -3c-31 22 -40 43 -17 63l94 82l-125 11c-30 3 -36 25 -24 61c12 37 30 52 55 36
l109 -66l-29 125c-6 29 12 41 50 41z" />
    <glyph glyph-name="plus" unicode="+" horiz-adv-x="563" 
d="M302 111h-42c-4 0 -6 2 -6 6v219h-218c-4 0 -6 2 -6 6v42c0 4 2 6 6 6h218v218c0 4 2 6 6 6h42c4 0 6 -2 6 -6v-218h219c4 0 6 -2 6 -6v-42c0 -4 -2 -6 -6 -6h-219v-219c0 -4 -2 -6 -6 -6z" />
    <glyph glyph-name="comma" unicode="," horiz-adv-x="230" 
d="M54 68l93 42c10 4 16 -2 16 -9c5 -85 -15 -159 -73 -223c-17 -19 -33 -27 -40 -29s-11 2 -7 10c18 42 25 80 25 119c0 28 -8 53 -18 73c-3 7 -3 14 4 17z" />
    <glyph glyph-name="hyphen" unicode="-" horiz-adv-x="243" 
d="M30 342v42c0 4 2 6 6 6h171c4 0 6 -2 6 -6v-42c0 -4 -2 -6 -6 -6h-171c-4 0 -6 2 -6 6z" />
    <glyph glyph-name="period" unicode="." horiz-adv-x="230" 
d="M45 56c0 35 25 64 70 64s70 -29 70 -64s-25 -63 -70 -63s-70 28 -70 63z" />
    <glyph glyph-name="slash" unicode="/" horiz-adv-x="374" 
d="M59 -50l-39 14c-4 2 -5 4 -4 8l291 800c2 3 4 5 8 3l39 -14c4 -2 5 -4 4 -8l-291 -800c-2 -3 -4 -5 -8 -3z" />
    <glyph glyph-name="zero" unicode="0" horiz-adv-x="476" 
d="M238 34c36 0 66 97 66 312v38c0 215 -30 302 -66 302s-66 -87 -66 -302v-38c0 -215 30 -312 66 -312zM238 730c130 0 198 -178 198 -370s-68 -370 -198 -370s-198 178 -198 370s68 370 198 370z" />
    <glyph glyph-name="one" unicode="1" horiz-adv-x="298" 
d="M90 56v501c0 22 -6 29 -17 29c-14 0 -29 -10 -40 -16s-19 9 -11 15c38 28 131 106 172 147c8 8 22 5 22 -5v-671c0 -23 6 -33 40 -48c4 -2 3 -8 -1 -8h-204c-4 0 -5 6 -1 8c34 15 40 25 40 48z" />
    <glyph glyph-name="two" unicode="2" horiz-adv-x="416" 
d="M140 91c-7 -9 -6 -16 5 -16h149c33 0 45 8 64 41l16 30c3 4 6 7 10 7c5 0 7 -5 5 -14l-28 -129c-2 -7 -5 -10 -12 -10h-317c-12 0 -16 26 -8 36c138 181 213 373 213 520c0 100 -38 123 -76 123c-45 0 -79 -52 -99 -113c-3 -9 -13 -7 -13 1l7 159c0 7 8 8 11 1
c5 -10 15 -14 27 -14c23 0 46 17 107 17c87 0 168 -56 168 -184c0 -149 -116 -317 -229 -455z" />
    <glyph glyph-name="three" unicode="3" horiz-adv-x="408" 
d="M115 370l-7 49h16c50 0 110 40 110 143v6c0 78 -37 116 -78 116c-44 0 -76 -42 -97 -107c-2 -6 -13 -6 -13 2l4 152c0 4 6 4 8 1c8 -12 16 -14 24 -14c22 0 60 12 101 12c87 0 176 -41 176 -156c0 -74 -45 -127 -108 -159c-6 -3 -6 -11 1 -13c85 -27 126 -94 126 -186
c0 -116 -69 -226 -195 -226c-100 0 -157 62 -157 147c0 44 21 78 49 95c13 8 30 13 21 -9c-7 -18 -13 -39 -13 -71c0 -41 21 -122 80 -122c43 0 82 52 82 169v32c0 112 -53 139 -101 139h-29z" />
    <glyph glyph-name="four" unicode="4" horiz-adv-x="457" 
d="M112 206h130c4 0 6 2 6 6v320c0 8 -9 8 -12 2l-129 -318c-3 -6 -1 -11 5 -10zM263 730c44 -8 40 -7 95 -10c4 0 6 -2 6 -6v-502c0 -4 2 -6 6 -6h66c6 0 8 -4 6 -9l-19 -60c-1 -4 -4 -6 -9 -6h-44c-4 0 -6 -2 -6 -6v-69c0 -23 6 -33 30 -48c4 -2 3 -8 -1 -8h-174
c-4 0 -5 6 -1 8c24 15 30 25 30 48v69c0 4 -2 6 -6 6h-214c-16 0 -18 13 -12 26l238 567c1 3 4 6 9 6z" />
    <glyph glyph-name="five" unicode="5" horiz-adv-x="418" 
d="M137 613l-14 -143c0 -4 1 -6 5 -6c186 15 257 -111 257 -228c0 -136 -69 -246 -195 -246c-100 0 -157 62 -157 147c0 44 21 78 49 95c13 8 30 13 21 -9c-7 -18 -13 -39 -13 -71c0 -41 21 -122 80 -122c43 0 82 52 82 189v22c0 132 -59 174 -127 174c-26 0 -64 -6 -64 -6
c-8 0 -10 4 -10 11l24 285c1 9 4 15 15 15h200c23 0 45 5 52 5c5 0 9 -3 9 -10l6 -133c1 -13 -10 -15 -15 -2l-8 21c-8 20 -25 24 -41 24h-144c-7 0 -11 -4 -12 -12z" />
    <glyph glyph-name="six" unicode="6" horiz-adv-x="466" 
d="M244 -10c-137 0 -204 158 -204 340c0 212 70 400 220 400c65 0 120 -39 120 -104c0 -37 -21 -71 -49 -88c-13 -8 -30 -13 -21 9c7 17 13 38 13 66c0 50 -21 76 -55 76c-47 0 -100 -62 -100 -329c23 41 63 65 108 65c83 0 156 -77 156 -205c0 -133 -75 -230 -188 -230z
M240 368c-28 0 -67 -40 -67 -152c0 -145 32 -185 72 -185s59 81 59 191c0 99 -26 146 -64 146z" />
    <glyph glyph-name="seven" unicode="7" horiz-adv-x="390" 
d="M276 616c4 7 0 9 -5 9h-186c-16 0 -33 -4 -41 -24l-8 -21c-5 -13 -16 -11 -15 2l6 133c0 7 4 10 9 10c7 0 29 -5 52 -5h286c7 0 13 -15 10 -21c-89 -147 -159 -279 -159 -445c0 -75 12 -154 25 -213c2 -10 2 -16 -6 -19l-105 -30c-9 -4 -12 -2 -15 7c-6 20 -9 76 -9 109
c0 196 72 357 161 508z" />
    <glyph glyph-name="eight" unicode="8" horiz-adv-x="435" 
d="M33 198c0 84 37 144 108 184c1 1 1 2 0 3c-56 38 -94 82 -94 173c0 96 65 172 175 172s169 -83 169 -174c0 -79 -35 -133 -91 -173c-1 -1 -1 -3 0 -4c66 -40 97 -100 97 -179c0 -92 -44 -210 -180 -210c-133 0 -184 98 -184 208zM154 198c0 -93 26 -164 62 -164
c40 0 61 74 61 164c0 80 -28 153 -63 153c-32 0 -60 -80 -60 -153zM162 555c0 -66 24 -144 58 -144s58 70 58 144c0 73 -18 131 -58 131c-41 0 -58 -62 -58 -131z" />
    <glyph glyph-name="nine" unicode="9" horiz-adv-x="466" 
d="M222 730c137 0 204 -158 204 -340c0 -212 -70 -400 -220 -400c-65 0 -120 39 -120 104c0 37 21 71 49 88c13 8 30 13 21 -9c-7 -17 -13 -38 -13 -66c0 -50 21 -76 55 -76c47 0 100 62 100 329c-23 -41 -63 -65 -108 -65c-83 0 -156 77 -156 205c0 133 75 230 188 230z
M226 352c28 0 67 40 67 152c0 145 -32 185 -72 185s-59 -81 -59 -191c0 -99 26 -146 64 -146z" />
    <glyph glyph-name="colon" unicode=":" horiz-adv-x="260" 
d="M60 56c0 35 25 64 70 64s70 -29 70 -64s-25 -63 -70 -63s-70 28 -70 63zM60 406c0 35 25 64 70 64s70 -29 70 -64s-25 -63 -70 -63s-70 28 -70 63z" />
    <glyph glyph-name="semicolon" unicode=";" horiz-adv-x="260" 
d="M60 406c0 35 25 64 70 64s70 -29 70 -64s-25 -63 -70 -63s-70 28 -70 63zM79 68l93 42c10 4 16 -2 16 -9c5 -85 -15 -159 -73 -223c-17 -19 -33 -27 -40 -29s-11 2 -7 10c18 42 25 80 25 119c0 28 -8 53 -18 73c-3 7 -3 14 4 17z" />
    <glyph glyph-name="less" unicode="&#x3c;" horiz-adv-x="394" 
d="M46 394l300 175c3 2 8 0 8 -4v-49c0 -4 -2 -6 -5 -8l-249 -145l249 -145c3 -2 5 -4 5 -8v-48c0 -4 -5 -6 -8 -4l-300 173c-3 2 -6 5 -6 11v41c0 6 3 9 6 11z" />
    <glyph glyph-name="equal" unicode="=" horiz-adv-x="413" 
d="M45 272v42c0 4 2 6 6 6h321c4 0 6 -2 6 -6v-42c0 -4 -2 -6 -6 -6h-321c-4 0 -6 2 -6 6zM45 412v42c0 4 2 6 6 6h321c4 0 6 -2 6 -6v-42c0 -4 -2 -6 -6 -6h-321c-4 0 -6 2 -6 6z" />
    <glyph glyph-name="greater" unicode="&#x3e;" horiz-adv-x="394" 
d="M48 569l300 -175c3 -2 6 -5 6 -11v-41c0 -6 -3 -9 -6 -11l-300 -173c-3 -2 -8 0 -8 4v48c0 4 2 6 5 8l249 145l-249 145c-3 2 -5 4 -5 8v49c0 4 5 6 8 4z" />
    <glyph glyph-name="question" unicode="?" horiz-adv-x="401" 
d="M132 293c0 109 113 190 113 292c0 58 -23 102 -79 102c-58 0 -81 -67 -81 -110c0 -19 1 -40 8 -54c0 -9 -5 -11 -15 -8c-32 10 -48 46 -48 75c0 88 66 143 159 143c114 0 177 -67 177 -153c0 -62 -31 -113 -65 -155c-45 -55 -97 -102 -97 -152c0 -22 11 -32 26 -32
c13 0 21 7 29 12c5 3 9 -1 8 -6c-4 -13 -25 -42 -62 -42c-39 0 -73 32 -73 88zM129 56c0 35 25 64 70 64s70 -29 70 -64s-25 -63 -70 -63s-70 28 -70 63z" />
    <glyph glyph-name="at" unicode="@" horiz-adv-x="742" 
d="M407 125v131c0 12 -4 20 -15 18c-25 -6 -63 -33 -63 -122c0 -77 19 -115 43 -115c27 0 35 27 35 88zM591 -51l12 -16c-58 -52 -142 -88 -220 -89c-252 -3 -323 185 -323 394s67 390 306 392c252 2 320 -183 320 -392c0 -114 -41 -243 -133 -243c-58 0 -73 20 -94 20
c-30 0 -59 -20 -99 -20c-84 0 -133 53 -133 153c0 106 69 139 156 167c17 6 27 15 27 35v9c0 50 -18 81 -52 81c-65 0 -70 -82 -87 -82c-2 0 -8 0 -8 13l3 93c0 4 1 8 8 8c37 0 57 9 103 9c93 0 136 -55 136 -177v-236c0 -14 9 -38 37 -38c40 0 67 99 67 208
c0 192 -51 349 -251 347c-187 -2 -237 -155 -237 -347c0 -193 53 -350 254 -348c69 1 135 13 208 59z" />
    <glyph glyph-name="A" unicode="A" horiz-adv-x="436" 
d="M133 239h101c4 0 6 4 5 8l-47 268c-2 13 -13 13 -15 0l-49 -268c-1 -4 1 -8 5 -8zM245 185h-123c-4 0 -6 -1 -7 -5l-23 -130c-3 -20 3 -29 25 -42c4 -3 3 -8 -1 -8h-118c-4 0 -5 6 -1 8c19 12 25 17 29 35l123 617c5 27 0 39 -22 52c-4 3 -3 8 1 8h140c6 0 10 -3 11 -9
l131 -668c3 -18 10 -23 29 -35c4 -2 4 -8 0 -8h-186c-4 0 -6 5 -2 8c22 13 29 22 25 42l-24 130c-1 4 -3 5 -7 5z" />
    <glyph glyph-name="B" unicode="B" horiz-adv-x="485" 
d="M75 56v608c0 23 -6 33 -30 48c-4 2 -3 8 1 8h212c87 0 165 -21 165 -146c0 -87 -31 -136 -96 -179c-6 -4 -6 -12 1 -13c85 -17 114 -84 114 -166c0 -116 -46 -216 -182 -216h-214c-4 0 -5 6 -1 8c24 15 30 25 30 48zM205 648v-212c0 -22 10 -27 23 -27c28 0 57 44 57 137
v42c0 68 -21 95 -54 95c-21 0 -26 -16 -26 -35zM205 329v-255c0 -26 12 -32 27 -32c33 0 68 52 68 149v43c0 102 -34 129 -72 129c-19 0 -23 -11 -23 -34z" />
    <glyph glyph-name="C" unicode="C" horiz-adv-x="407" 
d="M258 31c49 0 65 80 65 121c0 32 -6 53 -13 71c-9 22 8 17 21 9c28 -17 49 -51 49 -95c0 -85 -52 -147 -129 -147c-150 0 -211 188 -211 400c0 182 48 340 195 340c41 0 60 -11 82 -11c8 0 16 3 24 15c2 3 8 3 8 -1l4 -154c0 -8 -11 -8 -13 -2c-19 52 -38 112 -95 112
c-40 0 -63 -40 -63 -215v-208c0 -175 37 -235 76 -235z" />
    <glyph glyph-name="D" unicode="D" horiz-adv-x="493" 
d="M225 720c150 0 228 -98 228 -310s-68 -410 -228 -410h-178c-4 0 -5 6 -1 8c24 15 30 25 30 48v608c0 23 -6 33 -30 48c-4 2 -3 8 1 8h178zM228 676c-18 0 -22 -7 -22 -30v-586c0 -10 5 -16 19 -16c41 0 86 77 86 332v58c0 213 -40 242 -83 242z" />
    <glyph glyph-name="E" unicode="E" horiz-adv-x="410" 
d="M346 0h-299c-4 0 -5 6 -1 8c24 15 30 25 30 48v608c0 23 -6 33 -30 48c-4 2 -3 8 1 8h299c7 0 11 -3 12 -10l14 -108c1 -8 0 -14 -5 -14c-4 0 -6 3 -8 7l-14 25c-27 48 -63 60 -104 60h-13c-15 0 -22 -9 -22 -31v-174c0 -40 6 -49 34 -49h4c19 0 41 10 52 45l8 26
c3 9 6 18 13 18c6 0 8 -8 8 -19v-185c0 -11 -1 -19 -8 -19s-10 9 -13 18l-9 29c-11 35 -29 45 -51 45h-4c-28 0 -34 -9 -34 -49v-264c0 -22 5 -31 22 -31h13c43 0 77 11 108 57l17 25c3 4 6 7 10 7c5 0 7 -5 5 -14l-23 -105c-2 -7 -5 -10 -12 -10z" />
    <glyph glyph-name="F" unicode="F" horiz-adv-x="387" 
d="M206 335v-279c0 -23 8 -34 35 -48c4 -2 3 -8 -1 -8h-193c-4 0 -5 6 -1 8c24 15 30 25 30 48v608c0 23 -6 33 -30 48c-4 2 -3 8 1 8h299c7 0 11 -3 12 -10l14 -108c1 -8 0 -14 -5 -14c-4 0 -6 3 -8 7l-14 25c-27 48 -63 60 -104 60h-13c-15 0 -22 -9 -22 -31v-174
c0 -40 6 -49 34 -49h4c19 0 41 10 52 45l8 26c3 9 6 18 13 18c6 0 8 -8 8 -19v-185c0 -11 -1 -19 -8 -19s-10 9 -13 18l-9 29c-11 35 -29 45 -51 45h-4c-28 0 -34 -9 -34 -49z" />
    <glyph glyph-name="G" unicode="G" horiz-adv-x="471" 
d="M292 71v253c0 23 -6 33 -30 48c-4 2 -3 8 1 8h169c4 0 4 -5 1 -8c-15 -12 -20 -25 -20 -48v-321c0 -6 -8 -7 -11 0c-10 25 -33 45 -57 26c-28 -23 -52 -39 -94 -39c-150 0 -211 188 -211 400c0 182 58 340 205 340c41 0 60 -11 82 -11c8 0 16 3 24 15c2 3 8 3 8 -1
l4 -154c0 -8 -11 -8 -13 -2c-19 52 -38 112 -95 112c-40 0 -73 -40 -73 -215v-208c0 -175 38 -231 77 -231c17 0 33 18 33 36z" />
    <glyph glyph-name="H" unicode="H" horiz-adv-x="545" 
d="M212 438h121c4 0 6 2 6 6v220c0 23 -6 33 -30 48c-4 2 -3 8 1 8h188c4 0 5 -6 1 -8c-24 -15 -30 -25 -30 -48v-608c0 -23 6 -33 30 -48c4 -2 3 -8 -1 -8h-188c-4 0 -5 6 -1 8c24 15 30 25 30 48v322c0 4 -2 6 -6 6h-121c-4 0 -6 -2 -6 -6v-322c0 -23 6 -33 30 -48
c4 -2 3 -8 -1 -8h-188c-4 0 -5 6 -1 8c24 15 30 25 30 48v608c0 23 -6 33 -30 48c-4 2 -3 8 1 8h188c4 0 5 -6 1 -8c-24 -15 -30 -25 -30 -48v-220c0 -4 2 -6 6 -6z" />
    <glyph glyph-name="I" unicode="I" horiz-adv-x="282" 
d="M76 56v608c0 23 -6 33 -30 48c-4 2 -3 8 1 8h188c4 0 5 -6 1 -8c-24 -15 -30 -25 -30 -48v-608c0 -23 6 -33 30 -48c4 -2 3 -8 -1 -8h-188c-4 0 -5 6 -1 8c24 15 30 25 30 48z" />
    <glyph glyph-name="J" unicode="J" horiz-adv-x="479" 
d="M411 664v-422c0 -156 -76 -252 -203 -252c-101 0 -179 68 -179 174c0 88 51 144 117 144c39 0 69 -18 69 -57c0 -16 -5 -29 -9 -29c-5 0 -8 4 -23 4c-27 0 -57 -29 -57 -90c0 -65 33 -102 82 -102c50 0 73 53 73 144v486c0 23 -6 33 -30 48c-4 2 -3 8 1 8h188
c4 0 5 -6 1 -8c-24 -15 -30 -25 -30 -48z" />
    <glyph glyph-name="K" unicode="K" horiz-adv-x="474" 
d="M424 666l-136 -213c-6 -10 -10 -19 -10 -27c0 -13 8 -20 33 -23l44 -5c12 -1 22 -5 25 -20l58 -326c3 -16 12 -32 31 -44c4 -2 3 -8 -1 -8h-146c-8 0 -12 4 -13 11l-54 337c-2 15 -10 20 -23 22l-17 3c-6 1 -9 -3 -9 -9v-308c0 -23 6 -33 30 -48c4 -2 3 -8 -1 -8h-188
c-4 0 -5 6 -1 8c24 15 30 25 30 48v608c0 23 -6 33 -30 48c-4 2 -3 8 1 8h188c4 0 5 -6 1 -8c-24 -15 -30 -25 -30 -48v-210c0 -5 3 -7 7 -7c5 0 8 3 11 8l130 210c5 8 8 17 8 26c0 8 -3 15 -13 21c-4 2 -3 8 1 8h123c4 0 5 -6 1 -8c-21 -11 -35 -22 -50 -46z" />
    <glyph glyph-name="L" unicode="L" horiz-adv-x="403" 
d="M206 664v-593c0 -22 5 -31 22 -31h21c43 0 78 18 113 77l21 35c3 4 6 7 10 7c5 0 7 -5 5 -14l-32 -135c-2 -7 -5 -10 -12 -10h-307c-4 0 -5 6 -1 8c24 15 30 25 30 48v608c0 23 -6 33 -30 48c-4 2 -3 8 1 8h188c4 0 5 -6 1 -8c-24 -15 -30 -25 -30 -48z" />
    <glyph glyph-name="M" unicode="M" horiz-adv-x="662" 
d="M230 680l99 -280c2 -6 10 -6 12 0l99 280c3 8 5 20 5 27s2 13 11 13h159c4 0 5 -6 1 -8c-24 -15 -30 -25 -30 -48v-608c0 -23 6 -33 30 -48c4 -2 3 -8 -1 -8h-178c-4 0 -5 6 -1 8c24 15 30 25 30 48v467c0 6 -8 8 -10 2l-141 -382c-2 -6 -13 -6 -15 0l-142 382
c-2 6 -10 4 -10 -2v-467c0 -23 6 -33 30 -48c4 -2 3 -8 -1 -8h-130c-4 0 -5 6 -1 8c24 15 30 25 30 48v608c0 23 -6 33 -30 48c-4 2 -3 8 1 8h167c9 0 11 -6 11 -13s1 -19 5 -27z" />
    <glyph glyph-name="N" unicode="N" horiz-adv-x="517" 
d="M349 11l-191 425c-3 6 -10 4 -10 -2v-378c0 -23 6 -33 30 -48c4 -2 3 -8 -1 -8h-130c-4 0 -5 6 -1 8c24 15 30 25 30 48v608c0 23 -6 33 -30 48c-4 2 -3 8 1 8h108c9 0 14 -3 17 -11l191 -425c3 -6 10 -4 10 2v378c0 23 -6 33 -30 48c-4 2 -3 8 1 8h130c4 0 5 -6 1 -8
c-24 -15 -30 -25 -30 -48v-656c0 -5 -3 -8 -7 -8h-72c-9 0 -14 3 -17 11z" />
    <glyph glyph-name="O" unicode="O" horiz-adv-x="476" 
d="M238 34c36 0 56 57 56 232v198c0 175 -20 222 -56 222s-56 -47 -56 -222v-198c0 -175 20 -232 56 -232zM238 730c150 0 198 -178 198 -370s-48 -370 -198 -370s-198 178 -198 370s48 370 198 370z" />
    <glyph glyph-name="P" unicode="P" horiz-adv-x="472" 
d="M224 266c-13 -1 -18 0 -18 -22v-188c0 -23 10 -35 35 -48c4 -2 3 -8 -1 -8h-193c-4 0 -5 6 -1 8c24 15 30 25 30 48v608c0 23 -6 33 -30 48c-4 2 -3 8 1 8h194c126 0 197 -60 197 -206c0 -152 -118 -238 -214 -248zM206 646v-295c0 -23 4 -34 21 -34c29 0 69 34 69 149
v54c0 117 -30 158 -63 158c-15 0 -27 -6 -27 -32z" />
    <glyph glyph-name="Q" unicode="Q" horiz-adv-x="476" 
d="M238 730c150 0 198 -178 198 -370c0 -151 -32 -307 -122 -353c-10 -5 -11 -13 -11 -28c0 -53 27 -96 74 -123c12 -7 24 -11 35 -15c6 -2 7 -11 0 -13c-8 -3 -22 -5 -47 -5c-106 0 -156 65 -181 164c-2 6 -5 12 -12 15c-99 41 -132 200 -132 358c0 192 48 370 198 370z
M238 34c36 0 56 57 56 232v198c0 175 -20 222 -56 222s-56 -47 -56 -222v-198c0 -175 20 -232 56 -232z" />
    <glyph glyph-name="R" unicode="R" horiz-adv-x="470" 
d="M206 648v-230c0 -22 10 -27 23 -27c28 0 52 44 52 127v80c0 58 -16 85 -49 85c-21 0 -26 -16 -26 -35zM292 365l63 -7c12 -1 22 -5 25 -20l54 -286c3 -16 12 -32 31 -44c4 -2 3 -8 -1 -8h-146c-8 0 -12 4 -13 11l-50 297c-2 15 -10 20 -23 22l-17 3c-6 1 -9 -3 -9 -9
v-268c0 -23 10 -35 35 -48c4 -2 3 -8 -1 -8h-193c-4 0 -5 6 -1 8c24 15 30 25 30 48v608c0 23 -6 33 -30 48c-4 2 -3 8 1 8h207c87 0 165 -21 165 -146c0 -96 -43 -153 -128 -196c-6 -3 -6 -12 1 -13z" />
    <glyph glyph-name="S" unicode="S" horiz-adv-x="401" 
d="M52 -13l8 189c0 10 11 12 14 1c20 -81 69 -138 131 -138c34 0 55 23 55 72c0 28 -11 61 -37 100l-128 199c-34 52 -59 111 -59 170c0 93 57 150 144 150c69 0 98 -34 136 -34c12 0 22 6 27 16c3 7 11 6 11 -1l-7 -165c0 -8 -10 -10 -13 -1c-20 61 -64 135 -135 135
c-32 0 -55 -24 -55 -57c0 -31 19 -62 36 -89l133 -207c35 -53 63 -120 63 -180c0 -114 -78 -157 -151 -157c-68 0 -97 26 -126 26c-19 0 -29 -10 -35 -29c-2 -8 -12 -6 -12 0z" />
    <glyph glyph-name="T" unicode="T" horiz-adv-x="482" 
d="M75 720h332c31 0 42 15 45 -11l19 -164c1 -8 -8 -9 -11 -2l-31 59c-25 48 -46 70 -81 70h-3c-29 0 -37 -15 -37 -35v-581c0 -23 6 -33 30 -48c4 -2 3 -8 -1 -8h-188c-4 0 -5 6 -1 8c24 15 30 25 30 48v581c0 20 -8 35 -37 35h-3c-35 0 -60 -22 -83 -70l-28 -59
c-3 -7 -12 -6 -11 2l14 164c2 26 14 11 45 11z" />
    <glyph glyph-name="U" unicode="U" horiz-adv-x="528" 
d="M264 31c48 0 66 56 66 147v486c0 23 -6 33 -30 48c-4 2 -3 8 1 8h188c4 0 5 -6 1 -8c-24 -15 -30 -25 -30 -48v-422c0 -156 -69 -252 -196 -252s-196 96 -196 252v422c0 23 -6 33 -30 48c-4 2 -3 8 1 8h188c4 0 5 -6 1 -8c-24 -15 -30 -25 -30 -48v-486
c0 -91 18 -147 66 -147z" />
    <glyph glyph-name="V" unicode="V" horiz-adv-x="436" 
d="M160 670l83 -470c2 -13 13 -13 15 0l86 470c4 20 -3 29 -25 42c-4 3 -3 8 1 8h118c4 0 5 -6 1 -8c-19 -12 -25 -17 -29 -35l-123 -617c-4 -21 -3 -37 2 -50c2 -4 3 -10 -1 -10h-122c-6 0 -10 3 -11 9l-129 668c-3 18 -10 23 -29 35c-4 2 -4 8 0 8h186c4 0 6 -5 2 -8
c-22 -13 -29 -22 -25 -42z" />
    <glyph glyph-name="W" unicode="W" horiz-adv-x="674" 
d="M411 9l-72 374c-1 4 -5 4 -6 0l-64 -323c-4 -21 -3 -37 2 -50c2 -4 3 -10 -1 -10h-125c-6 0 -10 3 -11 9l-102 668c-3 18 -10 23 -29 35c-4 2 -4 8 0 8h186c4 0 6 -5 2 -8c-22 -13 -28 -22 -25 -42l59 -458c2 -13 13 -13 15 0l87 465c1 8 5 15 14 15h59c9 0 13 -7 14 -15
l85 -465c2 -13 13 -13 15 0l62 458c3 20 -3 29 -25 42c-4 3 -3 8 1 8h118c4 0 5 -6 1 -8c-19 -12 -26 -17 -29 -35l-95 -617c-3 -21 -3 -37 2 -50c2 -4 3 -10 -1 -10h-126c-6 0 -10 3 -11 9z" />
    <glyph glyph-name="X" unicode="X" horiz-adv-x="488" 
d="M193 670l71 -176c2 -6 8 -6 10 0l71 176c8 19 -3 31 -15 42c-4 4 -2 8 2 8h127c4 0 4 -6 0 -8c-25 -13 -33 -20 -43 -43l-109 -253c-4 -10 -4 -18 0 -28l145 -337c10 -23 18 -30 43 -43c4 -2 4 -8 0 -8h-197c-4 0 -6 4 -2 8c12 11 23 23 15 42l-97 237c-2 6 -8 6 -10 0
l-92 -237c-8 -19 3 -31 15 -42c4 -4 2 -8 -2 -8h-127c-4 0 -4 6 0 8c25 13 33 20 43 43l130 311c4 10 4 19 0 29l-119 278c-10 23 -18 30 -43 43c-4 2 -4 8 0 8h197c4 0 6 -4 2 -8c-12 -11 -23 -23 -15 -42z" />
    <glyph glyph-name="Y" unicode="Y" horiz-adv-x="477" 
d="M183 670l85 -229c2 -6 8 -6 10 0l86 229c7 19 -3 31 -15 42c-4 4 -2 8 2 8h129c4 0 4 -6 0 -8c-25 -13 -34 -20 -43 -43l-131 -329c-2 -5 -3 -9 -3 -13v-271c0 -23 6 -33 30 -48c4 -2 3 -8 -1 -8h-188c-4 0 -5 6 -1 8c24 15 30 25 30 48v271c0 5 -1 9 -3 14l-130 328
c-9 23 -18 30 -43 43c-4 2 -4 8 0 8h199c4 0 6 -4 2 -8c-12 -11 -22 -23 -15 -42z" />
    <glyph glyph-name="Z" unicode="Z" horiz-adv-x="413" 
d="M361 0h-337c-12 0 -13 13 -8 26l233 633c6 17 -1 21 -16 21h-68c-41 0 -78 -10 -102 -60l-17 -35c-2 -4 -5 -7 -9 -7c-5 0 -7 6 -6 14l17 118c1 7 5 10 12 10h330c12 0 13 -13 8 -26l-233 -633c-6 -17 1 -21 16 -21h75c43 0 80 13 108 61l20 35c3 4 6 7 10 7
c5 0 7 -5 5 -14l-26 -119c-2 -7 -5 -10 -12 -10z" />
    <glyph glyph-name="bracketleft" unicode="[" horiz-adv-x="318" 
d="M295 -87h-215v877h218v-30h-126v-817h123v-30z" />
    <glyph glyph-name="backslash" unicode="\" horiz-adv-x="486" 
d="M428 -225c-135 0 -161 176 -253 176c-35 0 -53 -20 -61 -54c-4 -17 -11 -27 -24 -27c-11 0 -20 6 -20 21c0 40 43 88 107 88c105 0 139 -122 222 -122c48 0 66 41 66 77c0 24 -4 35 -10 48c-2 5 -5 7 -4 10c3 6 14 7 29 2c36 -13 68 -50 68 -99c0 -62 -45 -120 -120 -120
zM238 34c36 0 56 57 56 232v198c0 175 -20 222 -56 222s-56 -47 -56 -222v-198c0 -175 20 -232 56 -232zM238 730c150 0 198 -178 198 -370s-48 -370 -198 -370s-198 178 -198 370s48 370 198 370z" />
    <glyph glyph-name="bracketright" unicode="]" horiz-adv-x="318" 
d="M238 -87h-215v30h123v817h-126v30h218v-877z" />
    <glyph glyph-name="asciicircum" unicode="^" horiz-adv-x="433" 
d="M11 414l175 300c2 3 5 6 11 6h41c6 0 9 -3 11 -6l173 -300c2 -3 0 -8 -4 -8h-48c-4 0 -6 2 -8 5l-145 249l-145 -249c-2 -3 -4 -5 -8 -5h-49c-4 0 -6 5 -4 8z" />
    <glyph glyph-name="underscore" unicode="_" horiz-adv-x="353" 
d="M0 -108v42c0 4 2 6 6 6h341c4 0 6 -2 6 -6v-42c0 -4 -2 -6 -6 -6h-341c-4 0 -6 2 -6 6z" />
    <glyph glyph-name="grave" unicode="`" horiz-adv-x="136" 
d="M116 621c0 -36 -27 -69 -52 -86c-2 -2 -4 -1 -5 0l-4 5c-1 2 -1 3 1 5c6 7 11 15 11 21c0 5 -5 7 -12 9c-20 6 -35 23 -35 46c0 30 22 48 48 48s48 -17 48 -48z" />
    <glyph glyph-name="a" unicode="a" horiz-adv-x="371" 
d="M117 187h77c4 0 6 4 5 8l-35 181c-2 13 -13 13 -15 0l-37 -181c-1 -4 1 -8 5 -8zM241 543l108 -500c4 -18 10 -23 29 -35c4 -2 4 -8 0 -8h-173c-4 0 -6 5 -2 8c22 13 29 22 25 42l-16 82c-1 3 -3 5 -7 5h-99c-4 0 -6 -2 -7 -5l-16 -82c-4 -20 3 -29 25 -42
c4 -3 3 -8 -1 -8h-113c-4 0 -5 6 -1 8c19 12 25 17 29 35l98 447c6 27 0 39 -22 52c-4 3 -3 8 1 8h133c5 0 8 -2 9 -7z" />
    <glyph glyph-name="b" unicode="b" horiz-adv-x="406" 
d="M218 0h-186c-4 0 -5 6 -1 8c24 15 30 25 30 48v438c0 23 -6 33 -30 48c-4 2 -3 8 1 8h182c77 0 143 -16 143 -111c0 -67 -26 -106 -80 -137c-5 -3 -5 -9 1 -10c71 -9 98 -64 98 -127c0 -89 -40 -165 -158 -165zM177 487v-150c0 -17 11 -21 19 -21c19 0 44 34 44 98v24
c0 54 -18 76 -42 76c-14 0 -21 -12 -21 -27zM177 247v-182c0 -20 13 -25 23 -25c24 0 54 40 54 114v18c0 83 -30 101 -57 101c-12 0 -20 -8 -20 -26z" />
    <glyph glyph-name="c" unicode="c" horiz-adv-x="354" 
d="M221 32c40 0 51 53 51 88c0 29 -7 49 -13 62c-7 17 8 15 19 10c31 -13 50 -44 50 -81c0 -69 -45 -119 -114 -119c-123 0 -179 134 -179 306c0 149 46 260 166 260c35 0 50 -9 68 -9c7 0 14 3 20 12c2 3 9 3 9 -1l4 -126c0 -6 -11 -6 -13 -1c-14 32 -32 85 -74 85
c-31 0 -52 -30 -52 -156v-169c0 -123 29 -161 58 -161z" />
    <glyph glyph-name="d" unicode="d" horiz-adv-x="419" 
d="M191 0h-159c-4 0 -5 6 -1 8c24 15 30 25 30 48v438c0 23 -6 33 -30 48c-4 2 -3 8 1 8h159c128 0 193 -75 193 -237s-57 -313 -193 -313zM195 508c-12 0 -16 -5 -16 -22v-432c0 -8 5 -12 13 -12c30 0 67 58 67 245v45c0 154 -33 176 -64 176z" />
    <glyph glyph-name="e" unicode="e" horiz-adv-x="351" 
d="M32 550h261c6 0 9 -2 10 -8l12 -90c1 -6 -1 -11 -5 -11s-6 3 -8 6l-12 19c-22 36 -51 46 -85 46h-7c-13 0 -19 -7 -19 -24v-121c0 -31 7 -38 27 -38h1c16 0 35 8 44 35l6 20c2 7 6 13 12 13c5 0 7 -5 7 -13v-151c0 -9 -1 -14 -7 -14s-10 7 -12 14l-7 22
c-9 27 -24 34 -43 34h-1c-20 0 -27 -6 -27 -37v-190c0 -17 5 -23 19 -23h9c36 0 63 8 89 43l14 19c2 3 6 6 9 6c4 0 7 -4 5 -11l-21 -88c-1 -6 -4 -8 -10 -8h-261c-4 0 -5 6 -1 8c24 15 30 25 30 48v438c0 23 -6 33 -30 48c-4 2 -3 8 1 8z" />
    <glyph glyph-name="f" unicode="f" horiz-adv-x="330" 
d="M213 0h-181c-4 0 -5 6 -1 8c24 15 30 25 30 48v438c0 23 -6 33 -30 48c-4 2 -3 8 1 8h260c6 0 10 -2 11 -8l12 -90c1 -6 -1 -11 -5 -11c-3 0 -6 3 -8 6l-12 19c-23 36 -51 46 -86 46h-6c-13 0 -19 -7 -19 -24v-121c0 -31 5 -38 27 -38h1c16 0 36 7 44 35l6 20
c2 7 5 13 11 13c5 0 8 -5 8 -13v-151c0 -9 -2 -14 -8 -14s-8 7 -11 14l-7 22c-9 27 -25 34 -43 34h-1c-22 0 -27 -6 -27 -37v-196c0 -23 8 -34 35 -48c4 -2 3 -8 -1 -8z" />
    <glyph glyph-name="g" unicode="g" horiz-adv-x="406" 
d="M354 234v-232c0 -6 -9 -6 -11 0c-9 22 -29 35 -49 20c-24 -17 -41 -30 -80 -30c-127 0 -179 144 -179 306c0 139 49 260 174 260c34 0 50 -9 69 -9c6 0 13 3 19 12c3 4 9 3 9 -1l3 -126c0 -6 -11 -6 -13 -1c-16 40 -31 85 -79 85c-33 0 -57 -30 -57 -164v-151
c0 -133 34 -168 62 -168c14 0 22 10 22 27v172c0 23 -3 33 -27 48c-4 2 -3 8 1 8h155c4 0 4 -5 1 -8c-15 -12 -20 -25 -20 -48z" />
    <glyph glyph-name="h" unicode="h" horiz-adv-x="462" 
d="M278 289h-94c-3 0 -5 -1 -5 -4v-229c0 -23 6 -33 30 -48c4 -2 3 -8 -1 -8h-176c-4 0 -5 6 -1 8c24 15 30 25 30 48v438c0 23 -6 33 -30 48c-4 2 -3 8 1 8h176c4 0 5 -6 1 -8c-24 -15 -30 -25 -30 -48v-151c0 -3 2 -4 5 -4h94c3 0 5 1 5 4v151c0 23 -6 33 -30 48
c-4 2 -3 8 1 8h176c4 0 5 -6 1 -8c-24 -15 -30 -25 -30 -48v-438c0 -23 6 -33 30 -48c4 -2 3 -8 -1 -8h-176c-4 0 -5 6 -1 8c24 15 30 25 30 48v229c0 3 -2 4 -5 4z" />
    <glyph glyph-name="i" unicode="i" horiz-adv-x="240" 
d="M179 494v-438c0 -23 6 -33 30 -48c4 -2 3 -8 -1 -8h-176c-4 0 -5 6 -1 8c24 15 30 25 30 48v438c0 23 -6 33 -30 48c-4 2 -3 8 1 8h176c4 0 5 -6 1 -8c-24 -15 -30 -25 -30 -48z" />
    <glyph glyph-name="j" unicode="j" horiz-adv-x="407" 
d="M236 147v347c0 23 -6 33 -30 48c-4 2 -3 8 1 8h176c4 0 5 -6 1 -8c-24 -15 -30 -25 -30 -48v-309c0 -119 -66 -193 -175 -193c-89 0 -155 51 -155 133c0 72 45 114 103 114c39 0 62 -17 62 -47c0 -15 -6 -26 -9 -26c-4 0 -7 3 -19 3c-22 0 -47 -20 -47 -65
c0 -47 29 -70 65 -70c38 0 57 43 57 113z" />
    <glyph glyph-name="k" unicode="k" horiz-adv-x="404" 
d="M194 355l100 147c6 9 8 14 8 22c0 7 -4 13 -13 18c-4 2 -3 8 1 8h113c4 0 5 -6 1 -8c-21 -11 -34 -23 -50 -46l-105 -150c-5 -8 -8 -14 -8 -21c0 -9 6 -15 27 -17l37 -4c10 -1 19 -4 21 -15l46 -237c3 -16 12 -32 31 -44c4 -2 3 -8 -1 -8h-131c-8 0 -12 4 -13 11l-45 252
c-2 11 -8 15 -19 17l-7 1c-5 1 -8 -2 -8 -7v-218c0 -23 6 -33 30 -48c4 -2 3 -8 -1 -8h-176c-4 0 -5 6 -1 8c24 15 30 25 30 48v438c0 23 -6 33 -30 48c-4 2 -3 8 1 8h176c4 0 5 -6 1 -8c-24 -15 -30 -25 -30 -48v-140c0 -4 3 -5 6 -5c4 0 6 2 9 6z" />
    <glyph glyph-name="l" unicode="l" horiz-adv-x="344" 
d="M179 494v-432c0 -17 4 -23 19 -23h15c36 0 64 13 93 58l18 27c2 3 5 6 9 6c5 0 8 -4 6 -11l-29 -111c-1 -6 -4 -8 -10 -8h-268c-4 0 -5 6 -1 8c24 15 30 25 30 48v438c0 23 -6 33 -30 48c-4 2 -3 8 1 8h176c4 0 5 -6 1 -8c-24 -15 -30 -25 -30 -48z" />
    <glyph glyph-name="m" unicode="m" horiz-adv-x="556" 
d="M199 510l76 -198c2 -5 8 -5 10 0l75 198c3 8 5 20 5 27s2 13 11 13h148c4 0 5 -6 1 -8c-24 -15 -30 -25 -30 -48v-438c0 -23 6 -33 30 -48c4 -2 3 -8 -1 -8h-168c-4 0 -5 6 -1 8c24 15 30 25 30 48v330c0 4 -6 6 -8 1l-114 -288c-2 -5 -11 -5 -13 0l-115 288
c-2 5 -9 3 -9 -1v-330c0 -23 6 -33 30 -48c4 -2 3 -8 -1 -8h-123c-4 0 -5 6 -1 8c24 15 30 25 30 48v438c0 23 -6 33 -30 48c-4 2 -3 8 1 8h151c9 0 11 -6 11 -13s2 -19 5 -27z" />
    <glyph glyph-name="n" unicode="n" horiz-adv-x="430" 
d="M148 539l151 -304c2 -5 8 -3 8 2v257c0 23 -6 33 -30 48c-4 2 -3 8 1 8h124c4 0 5 -6 1 -8c-24 -15 -30 -25 -30 -48v-488c0 -4 -3 -6 -6 -6h-66c-7 0 -11 2 -14 8l-152 309c-3 5 -9 3 -9 -1v-260c0 -23 6 -33 30 -48c4 -2 3 -8 -1 -8h-123c-4 0 -5 6 -1 8
c24 15 30 25 30 48v438c0 23 -6 33 -30 48c-4 2 -3 8 1 8h99c9 0 13 -3 17 -11z" />
    <glyph glyph-name="o" unicode="o" horiz-adv-x="406" 
d="M203 34c27 0 43 44 43 177v135c0 134 -16 170 -43 170s-43 -36 -43 -170v-135c0 -133 16 -177 43 -177zM203 558c127 0 168 -136 168 -283s-41 -283 -168 -283s-168 136 -168 283s41 283 168 283z" />
    <glyph glyph-name="p" unicode="p" horiz-adv-x="403" 
d="M179 182v-126c0 -23 8 -34 35 -48c4 -2 3 -8 -1 -8h-181c-4 0 -5 6 -1 8c24 15 30 25 30 48v438c0 23 -6 33 -30 48c-4 2 -3 8 1 8h176c106 0 165 -46 165 -157c0 -116 -98 -186 -179 -194c-11 -1 -15 -4 -15 -17zM179 486v-214c0 -17 3 -26 14 -26c19 0 53 26 53 114v33
c0 90 -26 117 -48 117c-10 0 -19 -5 -19 -24z" />
    <glyph glyph-name="q" unicode="q" horiz-adv-x="406" 
d="M268 7c-9 -4 -10 -10 -10 -19c0 -48 25 -87 65 -110c10 -6 21 -10 30 -13c6 -2 6 -10 0 -11c-7 -3 -19 -5 -40 -5c-92 0 -135 57 -157 142c-1 5 -4 10 -10 13c-83 30 -111 150 -111 271c0 147 40 283 168 283s168 -136 168 -283c0 -115 -28 -233 -103 -268zM203 34
c27 0 43 44 43 177v135c0 134 -16 170 -43 170s-43 -36 -43 -170v-135c0 -133 16 -177 43 -177z" />
    <glyph glyph-name="r" unicode="r" horiz-adv-x="404" 
d="M179 487v-164c0 -16 9 -20 17 -20c20 0 45 33 45 107v33c0 50 -13 71 -37 71c-14 0 -25 -12 -25 -27zM331 258l45 -206c3 -16 12 -32 31 -44c4 -2 3 -8 -1 -8h-132c-8 0 -12 4 -13 11l-41 221c-2 11 -8 16 -19 17l-14 1c-5 1 -8 -2 -8 -7v-187c0 -23 6 -33 30 -48
c4 -2 3 -8 -1 -8h-176c-4 0 -5 6 -1 8c24 15 30 25 30 48v438c0 23 -6 33 -30 48c-4 2 -3 8 1 8h192c73 0 139 -16 139 -111c0 -72 -30 -113 -101 -146c-5 -2 -5 -11 1 -12l47 -5c10 -1 19 -6 21 -18z" />
    <glyph glyph-name="s" unicode="s" horiz-adv-x="355" 
d="M48 -14l7 152c0 8 12 10 14 1c17 -62 58 -101 106 -101c31 0 46 23 46 53c0 20 -10 39 -31 70l-105 152c-28 41 -50 81 -50 126c0 71 50 119 127 119c58 0 78 -18 109 -18c11 0 19 3 23 9c3 5 11 5 11 -1l-7 -131c0 -6 -10 -7 -12 -1c-17 47 -52 96 -108 96
c-30 0 -43 -21 -43 -42c0 -20 14 -41 28 -62l110 -158c29 -41 53 -88 53 -134c0 -87 -69 -124 -134 -124c-57 0 -78 13 -103 13c-16 0 -24 -7 -29 -19c-3 -6 -12 -5 -12 0z" />
    <glyph glyph-name="t" unicode="t" horiz-adv-x="414" 
d="M268 479v-423c0 -23 6 -33 30 -48c4 -2 3 -8 -1 -8h-176c-4 0 -5 6 -1 8c24 15 30 25 30 48v423c0 15 -7 26 -27 26h-2c-29 0 -50 -16 -70 -53l-23 -45c-3 -5 -13 -5 -13 1l12 134c2 20 12 8 38 8h285c26 0 35 12 38 -8l16 -134c1 -6 -10 -6 -13 -1l-26 45
c-21 37 -38 53 -68 53h-2c-21 0 -27 -11 -27 -26z" />
    <glyph glyph-name="u" unicode="u" horiz-adv-x="445" 
d="M53 185v309c0 23 -6 33 -30 48c-4 2 -3 8 1 8h176c4 0 5 -6 1 -8c-24 -15 -30 -25 -30 -48v-350c0 -70 15 -112 52 -112c36 0 51 42 51 112v350c0 23 -6 33 -30 48c-4 2 -3 8 1 8h176c4 0 5 -6 1 -8c-24 -15 -30 -25 -30 -48v-309c0 -119 -58 -193 -169 -193
c-112 0 -170 74 -170 193z" />
    <glyph glyph-name="v" unicode="v" horiz-adv-x="376" 
d="M350 507l-98 -447c-4 -21 -3 -37 2 -50c2 -4 3 -10 -1 -10h-112c-5 0 -8 2 -9 7l-106 500c-4 18 -10 23 -29 35c-4 2 -4 8 0 8h173c4 0 6 -5 2 -8c-22 -13 -29 -22 -25 -42l64 -327c2 -10 11 -10 13 0l65 327c4 20 -3 29 -25 42c-4 3 -3 8 1 8h113c4 0 5 -6 1 -8
c-19 -12 -25 -17 -29 -35z" />
    <glyph glyph-name="w" unicode="w" horiz-adv-x="572" 
d="M114 7l-82 500c-3 18 -10 23 -29 35c-4 2 -4 8 0 8h171c4 0 6 -5 2 -8c-22 -13 -28 -22 -25 -42l43 -320c1 -9 10 -9 12 0l69 337c1 6 5 12 12 12h52c7 0 11 -6 12 -12l67 -337c2 -9 12 -9 13 0l49 320c3 20 -3 29 -25 42c-4 3 -3 8 1 8h112c4 0 5 -6 1 -8
c-19 -12 -26 -17 -29 -35l-78 -447c-4 -21 -3 -37 2 -50c2 -4 3 -10 -1 -10h-112c-5 0 -8 2 -9 7l-56 270c-1 3 -5 3 -6 0l-46 -217c-4 -21 -3 -37 2 -50c2 -4 3 -10 -1 -10h-112c-5 0 -8 2 -9 7z" />
    <glyph glyph-name="x" unicode="x" horiz-adv-x="415" 
d="M251 50l-72 161c-2 5 -7 5 -9 0l-68 -161c-8 -19 3 -31 15 -42c4 -4 2 -8 -2 -8h-120c-4 0 -4 6 0 8c25 13 33 20 43 43l102 222c3 7 3 14 0 22l-95 204c-10 23 -18 30 -43 43c-4 2 -4 8 0 8h181c4 0 6 -4 2 -8c-12 -11 -23 -23 -15 -42l52 -116c2 -4 6 -4 8 0l49 116
c8 19 -3 31 -15 42c-4 4 -2 8 2 8h119c4 0 4 -6 0 -8c-25 -13 -33 -20 -43 -43l-82 -177c-3 -8 -4 -14 0 -22l117 -249c11 -23 18 -30 43 -43c4 -2 4 -8 0 -8h-182c-4 0 -6 4 -2 8c12 11 23 23 15 42z" />
    <glyph glyph-name="y" unicode="y" horiz-adv-x="411" 
d="M264 250v-194c0 -23 6 -33 30 -48c4 -2 3 -8 -1 -8h-176c-4 0 -5 6 -1 8c24 15 30 25 30 48v194c0 4 0 7 -2 11l-104 238c-10 23 -18 30 -43 43c-4 2 -4 8 0 8h185c4 0 6 -4 2 -8c-12 -11 -22 -23 -15 -42l64 -157c2 -5 7 -5 9 0l65 157c8 19 -3 31 -15 42c-4 4 -2 8 2 8
h119c4 0 4 -6 0 -8c-25 -13 -33 -20 -43 -43l-104 -239c-2 -4 -2 -7 -2 -10z" />
    <glyph glyph-name="z" unicode="z" horiz-adv-x="360" 
d="M313 0h-290c-10 0 -11 10 -7 20l192 475c5 13 -1 17 -13 17h-50c-35 0 -67 -8 -87 -46l-14 -27c-2 -3 -4 -5 -8 -5c-5 0 -8 4 -7 10l15 98c1 6 5 8 10 8h285c10 0 10 -10 6 -20l-191 -475c-5 -13 0 -16 13 -16h55c36 0 69 9 93 46l17 27c2 3 4 5 8 5c5 0 8 -4 6 -10
l-23 -99c-1 -6 -4 -8 -10 -8z" />
    <glyph glyph-name="braceleft" unicode="{" horiz-adv-x="285" 
d="M82 358c69 -24 103 -82 103 -151c0 -50 -12 -100 -12 -145c0 -74 42 -104 102 -127v-22c-145 24 -195 89 -195 160c0 61 18 108 18 152c0 43 -17 103 -78 124v17c61 21 78 81 78 124c0 44 -18 91 -18 152c0 71 50 136 195 160v-22c-60 -23 -102 -53 -102 -127
c0 -45 12 -95 12 -145c0 -69 -34 -127 -103 -150z" />
    <glyph glyph-name="bar" unicode="|" horiz-adv-x="254" 
d="M148 -100h-42c-4 0 -6 2 -6 6v908c0 4 2 6 6 6h42c4 0 6 -2 6 -6v-908c0 -4 -2 -6 -6 -6z" />
    <glyph glyph-name="braceright" unicode="}" horiz-adv-x="285" 
d="M203 358c-69 23 -103 81 -103 150c0 50 12 100 12 145c0 74 -42 104 -102 127v22c145 -24 195 -89 195 -160c0 -61 -18 -108 -18 -152c0 -43 17 -103 78 -124v-17c-61 -21 -78 -81 -78 -124c0 -44 18 -91 18 -152c0 -71 -50 -136 -195 -160v22c60 23 102 53 102 127
c0 45 -12 95 -12 145c0 69 34 127 103 151z" />
    <glyph glyph-name="asciitilde" unicode="~" horiz-adv-x="517" 
d="M428 438l59 -5c-6 -75 -59 -142 -131 -142c-48 0 -85 29 -119 57c-27 22 -52 43 -80 43c-35 0 -63 -39 -68 -84l-59 5c7 73 61 139 131 139c48 0 84 -28 116 -56c25 -21 52 -43 81 -43c39 0 66 38 70 86z" />
    <glyph glyph-name="Adieresis" unicode="&#xc4;" 
d="M552 0h-400c-33 0 -52 19 -52 52v560c0 33 19 52 52 52h400c33 0 52 -19 52 -52v-560c0 -33 -19 -52 -52 -52zM544 100l-158 232l158 232c23 34 -27 66 -50 32l-142 -214l-143 218c-20 31 -70 -2 -50 -32l159 -236l-159 -236c-20 -30 30 -63 50 -32l143 217l142 -213
c23 -34 73 -2 50 32z" />
    <glyph glyph-name="Aring" unicode="&#xc5;" 
d="M552 0h-400c-33 0 -52 19 -52 52v560c0 33 19 52 52 52h400c33 0 52 -19 52 -52v-560c0 -33 -19 -52 -52 -52zM544 100l-158 232l158 232c23 34 -27 66 -50 32l-142 -214l-143 218c-20 31 -70 -2 -50 -32l159 -236l-159 -236c-20 -30 30 -63 50 -32l143 217l142 -213
c23 -34 73 -2 50 32z" />
    <glyph glyph-name="Ccedilla" unicode="&#xc7;" 
d="M552 0h-400c-33 0 -52 19 -52 52v560c0 33 19 52 52 52h400c33 0 52 -19 52 -52v-560c0 -33 -19 -52 -52 -52zM544 100l-158 232l158 232c23 34 -27 66 -50 32l-142 -214l-143 218c-20 31 -70 -2 -50 -32l159 -236l-159 -236c-20 -30 30 -63 50 -32l143 217l142 -213
c23 -34 73 -2 50 32z" />
    <glyph glyph-name="Eacute" unicode="&#xc9;" horiz-adv-x="690" 
d="M552 0h-400c-33 0 -52 19 -52 52v560c0 33 19 52 52 52h400c33 0 52 -19 52 -52v-560c0 -33 -19 -52 -52 -52zM544 100l-158 232l158 232c23 34 -27 66 -50 32l-142 -214l-143 218c-20 31 -70 -2 -50 -32l159 -236l-159 -236c-20 -30 30 -63 50 -32l143 217l142 -213
c23 -34 73 -2 50 32z" />
    <glyph glyph-name="Ntilde" unicode="&#xd1;" 
d="M552 0h-400c-33 0 -52 19 -52 52v560c0 33 19 52 52 52h400c33 0 52 -19 52 -52v-560c0 -33 -19 -52 -52 -52zM544 100l-158 232l158 232c23 34 -27 66 -50 32l-142 -214l-143 218c-20 31 -70 -2 -50 -32l159 -236l-159 -236c-20 -30 30 -63 50 -32l143 217l142 -213
c23 -34 73 -2 50 32z" />
    <glyph glyph-name="Odieresis" unicode="&#xd6;" 
d="M552 0h-400c-33 0 -52 19 -52 52v560c0 33 19 52 52 52h400c33 0 52 -19 52 -52v-560c0 -33 -19 -52 -52 -52zM544 100l-158 232l158 232c23 34 -27 66 -50 32l-142 -214l-143 218c-20 31 -70 -2 -50 -32l159 -236l-159 -236c-20 -30 30 -63 50 -32l143 217l142 -213
c23 -34 73 -2 50 32z" />
    <glyph glyph-name="Udieresis" unicode="&#xdc;" 
d="M552 0h-400c-33 0 -52 19 -52 52v560c0 33 19 52 52 52h400c33 0 52 -19 52 -52v-560c0 -33 -19 -52 -52 -52zM544 100l-158 232l158 232c23 34 -27 66 -50 32l-142 -214l-143 218c-20 31 -70 -2 -50 -32l159 -236l-159 -236c-20 -30 30 -63 50 -32l143 217l142 -213
c23 -34 73 -2 50 32z" />
    <glyph glyph-name="aacute" unicode="&#xe1;" 
d="M552 0h-400c-33 0 -52 19 -52 52v560c0 33 19 52 52 52h400c33 0 52 -19 52 -52v-560c0 -33 -19 -52 -52 -52zM544 100l-158 232l158 232c23 34 -27 66 -50 32l-142 -214l-143 218c-20 31 -70 -2 -50 -32l159 -236l-159 -236c-20 -30 30 -63 50 -32l143 217l142 -213
c23 -34 73 -2 50 32z" />
    <glyph glyph-name="agrave" unicode="&#xe0;" 
d="M552 0h-400c-33 0 -52 19 -52 52v560c0 33 19 52 52 52h400c33 0 52 -19 52 -52v-560c0 -33 -19 -52 -52 -52zM544 100l-158 232l158 232c23 34 -27 66 -50 32l-142 -214l-143 218c-20 31 -70 -2 -50 -32l159 -236l-159 -236c-20 -30 30 -63 50 -32l143 217l142 -213
c23 -34 73 -2 50 32z" />
    <glyph glyph-name="acircumflex" unicode="&#xe2;" 
d="M552 0h-400c-33 0 -52 19 -52 52v560c0 33 19 52 52 52h400c33 0 52 -19 52 -52v-560c0 -33 -19 -52 -52 -52zM544 100l-158 232l158 232c23 34 -27 66 -50 32l-142 -214l-143 218c-20 31 -70 -2 -50 -32l159 -236l-159 -236c-20 -30 30 -63 50 -32l143 217l142 -213
c23 -34 73 -2 50 32z" />
    <glyph glyph-name="adieresis" unicode="&#xe4;" 
d="M552 0h-400c-33 0 -52 19 -52 52v560c0 33 19 52 52 52h400c33 0 52 -19 52 -52v-560c0 -33 -19 -52 -52 -52zM544 100l-158 232l158 232c23 34 -27 66 -50 32l-142 -214l-143 218c-20 31 -70 -2 -50 -32l159 -236l-159 -236c-20 -30 30 -63 50 -32l143 217l142 -213
c23 -34 73 -2 50 32z" />
    <glyph glyph-name="atilde" unicode="&#xe3;" 
d="M552 0h-400c-33 0 -52 19 -52 52v560c0 33 19 52 52 52h400c33 0 52 -19 52 -52v-560c0 -33 -19 -52 -52 -52zM544 100l-158 232l158 232c23 34 -27 66 -50 32l-142 -214l-143 218c-20 31 -70 -2 -50 -32l159 -236l-159 -236c-20 -30 30 -63 50 -32l143 217l142 -213
c23 -34 73 -2 50 32z" />
    <glyph glyph-name="aring" unicode="&#xe5;" 
d="M552 0h-400c-33 0 -52 19 -52 52v560c0 33 19 52 52 52h400c33 0 52 -19 52 -52v-560c0 -33 -19 -52 -52 -52zM544 100l-158 232l158 232c23 34 -27 66 -50 32l-142 -214l-143 218c-20 31 -70 -2 -50 -32l159 -236l-159 -236c-20 -30 30 -63 50 -32l143 217l142 -213
c23 -34 73 -2 50 32z" />
    <glyph glyph-name="ccedilla" unicode="&#xe7;" 
d="M552 0h-400c-33 0 -52 19 -52 52v560c0 33 19 52 52 52h400c33 0 52 -19 52 -52v-560c0 -33 -19 -52 -52 -52zM544 100l-158 232l158 232c23 34 -27 66 -50 32l-142 -214l-143 218c-20 31 -70 -2 -50 -32l159 -236l-159 -236c-20 -30 30 -63 50 -32l143 217l142 -213
c23 -34 73 -2 50 32z" />
    <glyph glyph-name="eacute" unicode="&#xe9;" 
d="M552 0h-400c-33 0 -52 19 -52 52v560c0 33 19 52 52 52h400c33 0 52 -19 52 -52v-560c0 -33 -19 -52 -52 -52zM544 100l-158 232l158 232c23 34 -27 66 -50 32l-142 -214l-143 218c-20 31 -70 -2 -50 -32l159 -236l-159 -236c-20 -30 30 -63 50 -32l143 217l142 -213
c23 -34 73 -2 50 32z" />
    <glyph glyph-name="egrave" unicode="&#xe8;" 
d="M552 0h-400c-33 0 -52 19 -52 52v560c0 33 19 52 52 52h400c33 0 52 -19 52 -52v-560c0 -33 -19 -52 -52 -52zM544 100l-158 232l158 232c23 34 -27 66 -50 32l-142 -214l-143 218c-20 31 -70 -2 -50 -32l159 -236l-159 -236c-20 -30 30 -63 50 -32l143 217l142 -213
c23 -34 73 -2 50 32z" />
    <glyph glyph-name="ecircumflex" unicode="&#xea;" 
d="M552 0h-400c-33 0 -52 19 -52 52v560c0 33 19 52 52 52h400c33 0 52 -19 52 -52v-560c0 -33 -19 -52 -52 -52zM544 100l-158 232l158 232c23 34 -27 66 -50 32l-142 -214l-143 218c-20 31 -70 -2 -50 -32l159 -236l-159 -236c-20 -30 30 -63 50 -32l143 217l142 -213
c23 -34 73 -2 50 32z" />
    <glyph glyph-name="edieresis" unicode="&#xeb;" 
d="M552 0h-400c-33 0 -52 19 -52 52v560c0 33 19 52 52 52h400c33 0 52 -19 52 -52v-560c0 -33 -19 -52 -52 -52zM544 100l-158 232l158 232c23 34 -27 66 -50 32l-142 -214l-143 218c-20 31 -70 -2 -50 -32l159 -236l-159 -236c-20 -30 30 -63 50 -32l143 217l142 -213
c23 -34 73 -2 50 32z" />
    <glyph glyph-name="iacute" unicode="&#xed;" 
d="M552 0h-400c-33 0 -52 19 -52 52v560c0 33 19 52 52 52h400c33 0 52 -19 52 -52v-560c0 -33 -19 -52 -52 -52zM544 100l-158 232l158 232c23 34 -27 66 -50 32l-142 -214l-143 218c-20 31 -70 -2 -50 -32l159 -236l-159 -236c-20 -30 30 -63 50 -32l143 217l142 -213
c23 -34 73 -2 50 32z" />
    <glyph glyph-name="igrave" unicode="&#xec;" 
d="M552 0h-400c-33 0 -52 19 -52 52v560c0 33 19 52 52 52h400c33 0 52 -19 52 -52v-560c0 -33 -19 -52 -52 -52zM544 100l-158 232l158 232c23 34 -27 66 -50 32l-142 -214l-143 218c-20 31 -70 -2 -50 -32l159 -236l-159 -236c-20 -30 30 -63 50 -32l143 217l142 -213
c23 -34 73 -2 50 32z" />
    <glyph glyph-name="icircumflex" unicode="&#xee;" 
d="M552 0h-400c-33 0 -52 19 -52 52v560c0 33 19 52 52 52h400c33 0 52 -19 52 -52v-560c0 -33 -19 -52 -52 -52zM544 100l-158 232l158 232c23 34 -27 66 -50 32l-142 -214l-143 218c-20 31 -70 -2 -50 -32l159 -236l-159 -236c-20 -30 30 -63 50 -32l143 217l142 -213
c23 -34 73 -2 50 32z" />
    <glyph glyph-name="idieresis" unicode="&#xef;" 
d="M552 0h-400c-33 0 -52 19 -52 52v560c0 33 19 52 52 52h400c33 0 52 -19 52 -52v-560c0 -33 -19 -52 -52 -52zM544 100l-158 232l158 232c23 34 -27 66 -50 32l-142 -214l-143 218c-20 31 -70 -2 -50 -32l159 -236l-159 -236c-20 -30 30 -63 50 -32l143 217l142 -213
c23 -34 73 -2 50 32z" />
    <glyph glyph-name="ntilde" unicode="&#xf1;" 
d="M552 0h-400c-33 0 -52 19 -52 52v560c0 33 19 52 52 52h400c33 0 52 -19 52 -52v-560c0 -33 -19 -52 -52 -52zM544 100l-158 232l158 232c23 34 -27 66 -50 32l-142 -214l-143 218c-20 31 -70 -2 -50 -32l159 -236l-159 -236c-20 -30 30 -63 50 -32l143 217l142 -213
c23 -34 73 -2 50 32z" />
    <glyph glyph-name="ograve" unicode="&#xf2;" 
d="M552 0h-400c-33 0 -52 19 -52 52v560c0 33 19 52 52 52h400c33 0 52 -19 52 -52v-560c0 -33 -19 -52 -52 -52zM544 100l-158 232l158 232c23 34 -27 66 -50 32l-142 -214l-143 218c-20 31 -70 -2 -50 -32l159 -236l-159 -236c-20 -30 30 -63 50 -32l143 217l142 -213
c23 -34 73 -2 50 32z" />
    <glyph glyph-name="ocircumflex" unicode="&#xf4;" 
d="M552 0h-400c-33 0 -52 19 -52 52v560c0 33 19 52 52 52h400c33 0 52 -19 52 -52v-560c0 -33 -19 -52 -52 -52zM544 100l-158 232l158 232c23 34 -27 66 -50 32l-142 -214l-143 218c-20 31 -70 -2 -50 -32l159 -236l-159 -236c-20 -30 30 -63 50 -32l143 217l142 -213
c23 -34 73 -2 50 32z" />
    <glyph glyph-name="odieresis" unicode="&#xf6;" 
d="M552 0h-400c-33 0 -52 19 -52 52v560c0 33 19 52 52 52h400c33 0 52 -19 52 -52v-560c0 -33 -19 -52 -52 -52zM544 100l-158 232l158 232c23 34 -27 66 -50 32l-142 -214l-143 218c-20 31 -70 -2 -50 -32l159 -236l-159 -236c-20 -30 30 -63 50 -32l143 217l142 -213
c23 -34 73 -2 50 32z" />
    <glyph glyph-name="otilde" unicode="&#xf5;" 
d="M552 0h-400c-33 0 -52 19 -52 52v560c0 33 19 52 52 52h400c33 0 52 -19 52 -52v-560c0 -33 -19 -52 -52 -52zM544 100l-158 232l158 232c23 34 -27 66 -50 32l-142 -214l-143 218c-20 31 -70 -2 -50 -32l159 -236l-159 -236c-20 -30 30 -63 50 -32l143 217l142 -213
c23 -34 73 -2 50 32z" />
    <glyph glyph-name="uacute" unicode="&#xfa;" 
d="M552 0h-400c-33 0 -52 19 -52 52v560c0 33 19 52 52 52h400c33 0 52 -19 52 -52v-560c0 -33 -19 -52 -52 -52zM544 100l-158 232l158 232c23 34 -27 66 -50 32l-142 -214l-143 218c-20 31 -70 -2 -50 -32l159 -236l-159 -236c-20 -30 30 -63 50 -32l143 217l142 -213
c23 -34 73 -2 50 32z" />
    <glyph glyph-name="ugrave" unicode="&#xf9;" 
d="M552 0h-400c-33 0 -52 19 -52 52v560c0 33 19 52 52 52h400c33 0 52 -19 52 -52v-560c0 -33 -19 -52 -52 -52zM544 100l-158 232l158 232c23 34 -27 66 -50 32l-142 -214l-143 218c-20 31 -70 -2 -50 -32l159 -236l-159 -236c-20 -30 30 -63 50 -32l143 217l142 -213
c23 -34 73 -2 50 32z" />
    <glyph glyph-name="ucircumflex" unicode="&#xfb;" 
d="M552 0h-400c-33 0 -52 19 -52 52v560c0 33 19 52 52 52h400c33 0 52 -19 52 -52v-560c0 -33 -19 -52 -52 -52zM544 100l-158 232l158 232c23 34 -27 66 -50 32l-142 -214l-143 218c-20 31 -70 -2 -50 -32l159 -236l-159 -236c-20 -30 30 -63 50 -32l143 217l142 -213
c23 -34 73 -2 50 32z" />
    <glyph glyph-name="udieresis" unicode="&#xfc;" 
d="M552 0h-400c-33 0 -52 19 -52 52v560c0 33 19 52 52 52h400c33 0 52 -19 52 -52v-560c0 -33 -19 -52 -52 -52zM544 100l-158 232l158 232c23 34 -27 66 -50 32l-142 -214l-143 218c-20 31 -70 -2 -50 -32l159 -236l-159 -236c-20 -30 30 -63 50 -32l143 217l142 -213
c23 -34 73 -2 50 32z" />
    <glyph glyph-name="dagger" unicode="&#x2020;" 
d="M552 0h-400c-33 0 -52 19 -52 52v560c0 33 19 52 52 52h400c33 0 52 -19 52 -52v-560c0 -33 -19 -52 -52 -52zM544 100l-158 232l158 232c23 34 -27 66 -50 32l-142 -214l-143 218c-20 31 -70 -2 -50 -32l159 -236l-159 -236c-20 -30 30 -63 50 -32l143 217l142 -213
c23 -34 73 -2 50 32z" />
    <glyph glyph-name="degree" unicode="&#xb0;" 
d="M552 0h-400c-33 0 -52 19 -52 52v560c0 33 19 52 52 52h400c33 0 52 -19 52 -52v-560c0 -33 -19 -52 -52 -52zM544 100l-158 232l158 232c23 34 -27 66 -50 32l-142 -214l-143 218c-20 31 -70 -2 -50 -32l159 -236l-159 -236c-20 -30 30 -63 50 -32l143 217l142 -213
c23 -34 73 -2 50 32z" />
    <glyph glyph-name="cent" unicode="&#xa2;" horiz-adv-x="357" 
d="M217 489c-44 0 -57 -65 -57 -187v-105c0 -131 25 -167 55 -167c49 0 62 61 62 102c0 32 -6 53 -13 71c-9 22 7 17 20 9c28 -17 49 -51 49 -95c0 -68 -45 -117 -103 -125v-116c0 -4 -2 -6 -6 -6h-42c-4 0 -6 2 -6 6v118c-112 21 -141 144 -141 270c0 120 46 242 141 263
v107c0 4 2 6 6 6h42c4 0 6 -2 6 -6v-106c24 -3 37 -9 54 -9c8 0 16 3 24 15c2 3 8 3 8 -1l4 -138c0 -8 -10 -8 -13 -2c-19 42 -46 96 -90 96z" />
    <glyph glyph-name="sterling" unicode="&#xa3;" 
d="M552 0h-400c-33 0 -52 19 -52 52v560c0 33 19 52 52 52h400c33 0 52 -19 52 -52v-560c0 -33 -19 -52 -52 -52zM544 100l-158 232l158 232c23 34 -27 66 -50 32l-142 -214l-143 218c-20 31 -70 -2 -50 -32l159 -236l-159 -236c-20 -30 30 -63 50 -32l143 217l142 -213
c23 -34 73 -2 50 32z" />
    <glyph glyph-name="section" unicode="&#xa7;" 
d="M552 0h-400c-33 0 -52 19 -52 52v560c0 33 19 52 52 52h400c33 0 52 -19 52 -52v-560c0 -33 -19 -52 -52 -52zM544 100l-158 232l158 232c23 34 -27 66 -50 32l-142 -214l-143 218c-20 31 -70 -2 -50 -32l159 -236l-159 -236c-20 -30 30 -63 50 -32l143 217l142 -213
c23 -34 73 -2 50 32z" />
    <glyph glyph-name="bullet" unicode="&#x2022;" horiz-adv-x="286" 
d="M45 346c0 49 35 89 98 89s98 -40 98 -89s-35 -88 -98 -88s-98 39 -98 88z" />
    <glyph glyph-name="paragraph" unicode="&#xb6;" 
d="M552 0h-400c-33 0 -52 19 -52 52v560c0 33 19 52 52 52h400c33 0 52 -19 52 -52v-560c0 -33 -19 -52 -52 -52zM544 100l-158 232l158 232c23 34 -27 66 -50 32l-142 -214l-143 218c-20 31 -70 -2 -50 -32l159 -236l-159 -236c-20 -30 30 -63 50 -32l143 217l142 -213
c23 -34 73 -2 50 32z" />
    <glyph glyph-name="germandbls" unicode="&#xdf;" horiz-adv-x="674" 
d="M552 0h-400c-33 0 -52 19 -52 52v560c0 33 19 52 52 52h400c33 0 52 -19 52 -52v-560c0 -33 -19 -52 -52 -52zM544 100l-158 232l158 232c23 34 -27 66 -50 32l-142 -214l-143 218c-20 31 -70 -2 -50 -32l159 -236l-159 -236c-20 -30 30 -63 50 -32l143 217l142 -213
c23 -34 73 -2 50 32z" />
    <glyph glyph-name="registered" unicode="&#xae;" horiz-adv-x="499" 
d="M55 545c0 107 87 195 194 195s195 -88 195 -195s-88 -194 -195 -194s-194 87 -194 194zM83 545c0 -94 74 -170 166 -170s167 76 167 170s-75 171 -167 171s-166 -77 -166 -171zM234 635v-65c0 -7 4 -11 13 -11c14 0 25 15 25 48v13c0 22 -7 32 -22 32
c-11 0 -16 -6 -16 -17zM308 539l20 -93c1 -7 5 -15 14 -20c2 -1 1 -4 -1 -4h-54c-4 0 -5 2 -6 5l-18 100c-1 5 -4 7 -9 8h-16c-2 0 -4 -1 -4 -3v-84c0 -11 3 -15 14 -22c2 -1 1 -4 -1 -4h-74c-2 0 -2 3 0 4c10 7 13 11 13 22v197c0 10 -3 15 -13 21c-2 1 -2 4 0 4h86
c33 0 63 -7 63 -50c0 -32 -13 -51 -45 -66c-3 -1 -3 -5 0 -5l21 -2c5 -1 9 -3 10 -8z" />
    <glyph glyph-name="copyright" unicode="&#xa9;" horiz-adv-x="881" 
d="M60 360c0 210 170 381 380 381s381 -171 381 -381s-171 -380 -381 -380s-380 170 -380 380zM107 360c0 -188 149 -340 333 -340s334 152 334 340s-150 341 -334 341s-333 -153 -333 -341zM392 384v-48c0 -122 27 -187 71 -187s71 54 90 96c3 6 13 6 13 -2l-4 -138
c0 -4 -6 -4 -8 -1c-8 12 -16 15 -24 15c-22 0 -38 -11 -79 -11c-114 0 -170 120 -170 252s56 252 170 252c41 0 57 -11 79 -11c8 0 16 3 24 15c2 3 8 3 8 -1l4 -138c0 -8 -10 -8 -13 -2c-19 42 -46 96 -90 96s-71 -65 -71 -187z" />
    <glyph glyph-name="trademark" unicode="&#x2122;" horiz-adv-x="603" 
d="M167 678v-224c0 -14 3 -20 18 -29c2 -1 1 -5 -1 -5h-91c-2 0 -3 4 0 5c14 9 18 15 18 29v224c0 9 -4 15 -16 15c-19 0 -33 -8 -44 -31l-13 -27c-2 -3 -8 -2 -8 1l7 80c1 12 7 4 23 4h156c15 0 22 8 23 -4l9 -80c0 -3 -6 -4 -8 -1l-15 27c-13 22 -23 31 -42 31
c-13 0 -16 -6 -16 -15zM355 696l50 -133c1 -3 5 -3 6 0l51 133c2 5 3 12 3 17c0 4 1 7 6 7h89c3 0 3 -3 1 -4c-15 -9 -18 -15 -18 -29v-233c0 -14 3 -20 18 -29c2 -1 2 -5 -1 -5h-91c-2 0 -3 4 0 5c14 9 18 15 18 29v193c0 2 -4 4 -5 1l-78 -198c-1 -3 -7 -3 -8 0l-69 173
c-1 3 -6 1 -6 -1v-168c0 -14 4 -20 18 -29c3 -1 2 -5 0 -5h-74c-2 0 -3 4 -1 5c15 9 18 15 18 29v233c0 14 -3 20 -18 29c-2 1 -1 4 1 4h81c5 0 6 -3 6 -7c0 -5 1 -12 3 -17z" />
    <glyph glyph-name="acute" unicode="&#xb4;" horiz-adv-x="400" 
d="M114 596l109 127c27 31 65 35 86 8c22 -28 9 -63 -28 -81l-149 -76c-6 -3 -12 0 -16 6c-5 6 -6 12 -2 16z" />
    <glyph glyph-name="dieresis" unicode="&#xa8;" 
d="M552 0h-400c-33 0 -52 19 -52 52v560c0 33 19 52 52 52h400c33 0 52 -19 52 -52v-560c0 -33 -19 -52 -52 -52zM544 100l-158 232l158 232c23 34 -27 66 -50 32l-142 -214l-143 218c-20 31 -70 -2 -50 -32l159 -236l-159 -236c-20 -30 30 -63 50 -32l143 217l142 -213
c23 -34 73 -2 50 32z" />
    <glyph glyph-name="notequal" unicode="&#x2260;" 
d="M552 0h-400c-33 0 -52 19 -52 52v560c0 33 19 52 52 52h400c33 0 52 -19 52 -52v-560c0 -33 -19 -52 -52 -52zM544 100l-158 232l158 232c23 34 -27 66 -50 32l-142 -214l-143 218c-20 31 -70 -2 -50 -32l159 -236l-159 -236c-20 -30 30 -63 50 -32l143 217l142 -213
c23 -34 73 -2 50 32z" />
    <glyph glyph-name="AE" unicode="&#xc6;" 
d="M552 0h-400c-33 0 -52 19 -52 52v560c0 33 19 52 52 52h400c33 0 52 -19 52 -52v-560c0 -33 -19 -52 -52 -52zM544 100l-158 232l158 232c23 34 -27 66 -50 32l-142 -214l-143 218c-20 31 -70 -2 -50 -32l159 -236l-159 -236c-20 -30 30 -63 50 -32l143 217l142 -213
c23 -34 73 -2 50 32z" />
    <glyph glyph-name="Oslash" unicode="&#xd8;" 
d="M552 0h-400c-33 0 -52 19 -52 52v560c0 33 19 52 52 52h400c33 0 52 -19 52 -52v-560c0 -33 -19 -52 -52 -52zM544 100l-158 232l158 232c23 34 -27 66 -50 32l-142 -214l-143 218c-20 31 -70 -2 -50 -32l159 -236l-159 -236c-20 -30 30 -63 50 -32l143 217l142 -213
c23 -34 73 -2 50 32z" />
    <glyph glyph-name="infinity" unicode="&#x221e;" 
d="M552 0h-400c-33 0 -52 19 -52 52v560c0 33 19 52 52 52h400c33 0 52 -19 52 -52v-560c0 -33 -19 -52 -52 -52zM544 100l-158 232l158 232c23 34 -27 66 -50 32l-142 -214l-143 218c-20 31 -70 -2 -50 -32l159 -236l-159 -236c-20 -30 30 -63 50 -32l143 217l142 -213
c23 -34 73 -2 50 32z" />
    <glyph glyph-name="plusminus" unicode="&#xb1;" 
d="M552 0h-400c-33 0 -52 19 -52 52v560c0 33 19 52 52 52h400c33 0 52 -19 52 -52v-560c0 -33 -19 -52 -52 -52zM544 100l-158 232l158 232c23 34 -27 66 -50 32l-142 -214l-143 218c-20 31 -70 -2 -50 -32l159 -236l-159 -236c-20 -30 30 -63 50 -32l143 217l142 -213
c23 -34 73 -2 50 32z" />
    <glyph glyph-name="lessequal" unicode="&#x2264;" 
d="M552 0h-400c-33 0 -52 19 -52 52v560c0 33 19 52 52 52h400c33 0 52 -19 52 -52v-560c0 -33 -19 -52 -52 -52zM544 100l-158 232l158 232c23 34 -27 66 -50 32l-142 -214l-143 218c-20 31 -70 -2 -50 -32l159 -236l-159 -236c-20 -30 30 -63 50 -32l143 217l142 -213
c23 -34 73 -2 50 32z" />
    <glyph glyph-name="greaterequal" unicode="&#x2265;" 
d="M552 0h-400c-33 0 -52 19 -52 52v560c0 33 19 52 52 52h400c33 0 52 -19 52 -52v-560c0 -33 -19 -52 -52 -52zM544 100l-158 232l158 232c23 34 -27 66 -50 32l-142 -214l-143 218c-20 31 -70 -2 -50 -32l159 -236l-159 -236c-20 -30 30 -63 50 -32l143 217l142 -213
c23 -34 73 -2 50 32z" />
    <glyph glyph-name="yen" unicode="&#xa5;" 
d="M552 0h-400c-33 0 -52 19 -52 52v560c0 33 19 52 52 52h400c33 0 52 -19 52 -52v-560c0 -33 -19 -52 -52 -52zM544 100l-158 232l158 232c23 34 -27 66 -50 32l-142 -214l-143 218c-20 31 -70 -2 -50 -32l159 -236l-159 -236c-20 -30 30 -63 50 -32l143 217l142 -213
c23 -34 73 -2 50 32z" />
    <glyph glyph-name="mu" unicode="&#xb5;" 
d="M552 0h-400c-33 0 -52 19 -52 52v560c0 33 19 52 52 52h400c33 0 52 -19 52 -52v-560c0 -33 -19 -52 -52 -52zM544 100l-158 232l158 232c23 34 -27 66 -50 32l-142 -214l-143 218c-20 31 -70 -2 -50 -32l159 -236l-159 -236c-20 -30 30 -63 50 -32l143 217l142 -213
c23 -34 73 -2 50 32z" />
    <glyph glyph-name="partialdiff" unicode="&#x2202;" 
d="M552 0h-400c-33 0 -52 19 -52 52v560c0 33 19 52 52 52h400c33 0 52 -19 52 -52v-560c0 -33 -19 -52 -52 -52zM544 100l-158 232l158 232c23 34 -27 66 -50 32l-142 -214l-143 218c-20 31 -70 -2 -50 -32l159 -236l-159 -236c-20 -30 30 -63 50 -32l143 217l142 -213
c23 -34 73 -2 50 32z" />
    <glyph glyph-name="summation" unicode="&#x2211;" 
d="M552 0h-400c-33 0 -52 19 -52 52v560c0 33 19 52 52 52h400c33 0 52 -19 52 -52v-560c0 -33 -19 -52 -52 -52zM544 100l-158 232l158 232c23 34 -27 66 -50 32l-142 -214l-143 218c-20 31 -70 -2 -50 -32l159 -236l-159 -236c-20 -30 30 -63 50 -32l143 217l142 -213
c23 -34 73 -2 50 32z" />
    <glyph glyph-name="product" unicode="&#x220f;" 
d="M552 0h-400c-33 0 -52 19 -52 52v560c0 33 19 52 52 52h400c33 0 52 -19 52 -52v-560c0 -33 -19 -52 -52 -52zM544 100l-158 232l158 232c23 34 -27 66 -50 32l-142 -214l-143 218c-20 31 -70 -2 -50 -32l159 -236l-159 -236c-20 -30 30 -63 50 -32l143 217l142 -213
c23 -34 73 -2 50 32z" />
    <glyph glyph-name="pi" unicode="&#x3c0;" 
d="M552 0h-400c-33 0 -52 19 -52 52v560c0 33 19 52 52 52h400c33 0 52 -19 52 -52v-560c0 -33 -19 -52 -52 -52zM544 100l-158 232l158 232c23 34 -27 66 -50 32l-142 -214l-143 218c-20 31 -70 -2 -50 -32l159 -236l-159 -236c-20 -30 30 -63 50 -32l143 217l142 -213
c23 -34 73 -2 50 32z" />
    <glyph glyph-name="integral" unicode="&#x222b;" 
d="M552 0h-400c-33 0 -52 19 -52 52v560c0 33 19 52 52 52h400c33 0 52 -19 52 -52v-560c0 -33 -19 -52 -52 -52zM544 100l-158 232l158 232c23 34 -27 66 -50 32l-142 -214l-143 218c-20 31 -70 -2 -50 -32l159 -236l-159 -236c-20 -30 30 -63 50 -32l143 217l142 -213
c23 -34 73 -2 50 32z" />
    <glyph glyph-name="ordfeminine" unicode="&#xaa;" 
d="M552 0h-400c-33 0 -52 19 -52 52v560c0 33 19 52 52 52h400c33 0 52 -19 52 -52v-560c0 -33 -19 -52 -52 -52zM544 100l-158 232l158 232c23 34 -27 66 -50 32l-142 -214l-143 218c-20 31 -70 -2 -50 -32l159 -236l-159 -236c-20 -30 30 -63 50 -32l143 217l142 -213
c23 -34 73 -2 50 32z" />
    <glyph glyph-name="ordmasculine" unicode="&#xba;" 
d="M552 0h-400c-33 0 -52 19 -52 52v560c0 33 19 52 52 52h400c33 0 52 -19 52 -52v-560c0 -33 -19 -52 -52 -52zM544 100l-158 232l158 232c23 34 -27 66 -50 32l-142 -214l-143 218c-20 31 -70 -2 -50 -32l159 -236l-159 -236c-20 -30 30 -63 50 -32l143 217l142 -213
c23 -34 73 -2 50 32z" />
    <glyph glyph-name="Omega" unicode="&#x2126;" 
d="M552 0h-400c-33 0 -52 19 -52 52v560c0 33 19 52 52 52h400c33 0 52 -19 52 -52v-560c0 -33 -19 -52 -52 -52zM544 100l-158 232l158 232c23 34 -27 66 -50 32l-142 -214l-143 218c-20 31 -70 -2 -50 -32l159 -236l-159 -236c-20 -30 30 -63 50 -32l143 217l142 -213
c23 -34 73 -2 50 32z" />
    <glyph glyph-name="ae" unicode="&#xe6;" 
d="M552 0h-400c-33 0 -52 19 -52 52v560c0 33 19 52 52 52h400c33 0 52 -19 52 -52v-560c0 -33 -19 -52 -52 -52zM544 100l-158 232l158 232c23 34 -27 66 -50 32l-142 -214l-143 218c-20 31 -70 -2 -50 -32l159 -236l-159 -236c-20 -30 30 -63 50 -32l143 217l142 -213
c23 -34 73 -2 50 32z" />
    <glyph glyph-name="oslash" unicode="&#xf8;" 
d="M552 0h-400c-33 0 -52 19 -52 52v560c0 33 19 52 52 52h400c33 0 52 -19 52 -52v-560c0 -33 -19 -52 -52 -52zM544 100l-158 232l158 232c23 34 -27 66 -50 32l-142 -214l-143 218c-20 31 -70 -2 -50 -32l159 -236l-159 -236c-20 -30 30 -63 50 -32l143 217l142 -213
c23 -34 73 -2 50 32z" />
    <glyph glyph-name="questiondown" unicode="&#xbf;" 
d="M552 0h-400c-33 0 -52 19 -52 52v560c0 33 19 52 52 52h400c33 0 52 -19 52 -52v-560c0 -33 -19 -52 -52 -52zM544 100l-158 232l158 232c23 34 -27 66 -50 32l-142 -214l-143 218c-20 31 -70 -2 -50 -32l159 -236l-159 -236c-20 -30 30 -63 50 -32l143 217l142 -213
c23 -34 73 -2 50 32z" />
    <glyph glyph-name="exclamdown" unicode="&#xa1;" 
d="M552 0h-400c-33 0 -52 19 -52 52v560c0 33 19 52 52 52h400c33 0 52 -19 52 -52v-560c0 -33 -19 -52 -52 -52zM544 100l-158 232l158 232c23 34 -27 66 -50 32l-142 -214l-143 218c-20 31 -70 -2 -50 -32l159 -236l-159 -236c-20 -30 30 -63 50 -32l143 217l142 -213
c23 -34 73 -2 50 32z" />
    <glyph glyph-name="logicalnot" unicode="&#xac;" 
d="M552 0h-400c-33 0 -52 19 -52 52v560c0 33 19 52 52 52h400c33 0 52 -19 52 -52v-560c0 -33 -19 -52 -52 -52zM544 100l-158 232l158 232c23 34 -27 66 -50 32l-142 -214l-143 218c-20 31 -70 -2 -50 -32l159 -236l-159 -236c-20 -30 30 -63 50 -32l143 217l142 -213
c23 -34 73 -2 50 32z" />
    <glyph glyph-name="radical" unicode="&#x221a;" 
d="M552 0h-400c-33 0 -52 19 -52 52v560c0 33 19 52 52 52h400c33 0 52 -19 52 -52v-560c0 -33 -19 -52 -52 -52zM544 100l-158 232l158 232c23 34 -27 66 -50 32l-142 -214l-143 218c-20 31 -70 -2 -50 -32l159 -236l-159 -236c-20 -30 30 -63 50 -32l143 217l142 -213
c23 -34 73 -2 50 32z" />
    <glyph glyph-name="florin" unicode="&#x192;" 
d="M552 0h-400c-33 0 -52 19 -52 52v560c0 33 19 52 52 52h400c33 0 52 -19 52 -52v-560c0 -33 -19 -52 -52 -52zM544 100l-158 232l158 232c23 34 -27 66 -50 32l-142 -214l-143 218c-20 31 -70 -2 -50 -32l159 -236l-159 -236c-20 -30 30 -63 50 -32l143 217l142 -213
c23 -34 73 -2 50 32z" />
    <glyph glyph-name="approxequal" unicode="&#x2248;" 
d="M552 0h-400c-33 0 -52 19 -52 52v560c0 33 19 52 52 52h400c33 0 52 -19 52 -52v-560c0 -33 -19 -52 -52 -52zM544 100l-158 232l158 232c23 34 -27 66 -50 32l-142 -214l-143 218c-20 31 -70 -2 -50 -32l159 -236l-159 -236c-20 -30 30 -63 50 -32l143 217l142 -213
c23 -34 73 -2 50 32z" />
    <glyph glyph-name="Delta" unicode="&#x2206;" 
d="M552 0h-400c-33 0 -52 19 -52 52v560c0 33 19 52 52 52h400c33 0 52 -19 52 -52v-560c0 -33 -19 -52 -52 -52zM544 100l-158 232l158 232c23 34 -27 66 -50 32l-142 -214l-143 218c-20 31 -70 -2 -50 -32l159 -236l-159 -236c-20 -30 30 -63 50 -32l143 217l142 -213
c23 -34 73 -2 50 32z" />
    <glyph glyph-name="guillemotleft" unicode="&#xab;" 
d="M552 0h-400c-33 0 -52 19 -52 52v560c0 33 19 52 52 52h400c33 0 52 -19 52 -52v-560c0 -33 -19 -52 -52 -52zM544 100l-158 232l158 232c23 34 -27 66 -50 32l-142 -214l-143 218c-20 31 -70 -2 -50 -32l159 -236l-159 -236c-20 -30 30 -63 50 -32l143 217l142 -213
c23 -34 73 -2 50 32z" />
    <glyph glyph-name="guillemotright" unicode="&#xbb;" 
d="M552 0h-400c-33 0 -52 19 -52 52v560c0 33 19 52 52 52h400c33 0 52 -19 52 -52v-560c0 -33 -19 -52 -52 -52zM544 100l-158 232l158 232c23 34 -27 66 -50 32l-142 -214l-143 218c-20 31 -70 -2 -50 -32l159 -236l-159 -236c-20 -30 30 -63 50 -32l143 217l142 -213
c23 -34 73 -2 50 32z" />
    <glyph glyph-name="ellipsis" unicode="&#x2026;" 
d="M45 56c0 35 25 64 70 64s70 -29 70 -64s-25 -63 -70 -63s-70 28 -70 63zM275 56c0 35 25 64 70 64s70 -29 70 -64s-25 -63 -70 -63s-70 28 -70 63zM505 56c0 35 25 64 70 64s70 -29 70 -64s-25 -63 -70 -63s-70 28 -70 63z" />
    <glyph glyph-name="uni00A0" unicode="&#xa0;" horiz-adv-x="130" 
 />
    <glyph glyph-name="Agrave" unicode="&#xc0;" 
d="M552 0h-400c-33 0 -52 19 -52 52v560c0 33 19 52 52 52h400c33 0 52 -19 52 -52v-560c0 -33 -19 -52 -52 -52zM544 100l-158 232l158 232c23 34 -27 66 -50 32l-142 -214l-143 218c-20 31 -70 -2 -50 -32l159 -236l-159 -236c-20 -30 30 -63 50 -32l143 217l142 -213
c23 -34 73 -2 50 32z" />
    <glyph glyph-name="Atilde" unicode="&#xc3;" 
d="M552 0h-400c-33 0 -52 19 -52 52v560c0 33 19 52 52 52h400c33 0 52 -19 52 -52v-560c0 -33 -19 -52 -52 -52zM544 100l-158 232l158 232c23 34 -27 66 -50 32l-142 -214l-143 218c-20 31 -70 -2 -50 -32l159 -236l-159 -236c-20 -30 30 -63 50 -32l143 217l142 -213
c23 -34 73 -2 50 32z" />
    <glyph glyph-name="Otilde" unicode="&#xd5;" 
d="M552 0h-400c-33 0 -52 19 -52 52v560c0 33 19 52 52 52h400c33 0 52 -19 52 -52v-560c0 -33 -19 -52 -52 -52zM544 100l-158 232l158 232c23 34 -27 66 -50 32l-142 -214l-143 218c-20 31 -70 -2 -50 -32l159 -236l-159 -236c-20 -30 30 -63 50 -32l143 217l142 -213
c23 -34 73 -2 50 32z" />
    <glyph glyph-name="OE" unicode="&#x152;" 
d="M552 0h-400c-33 0 -52 19 -52 52v560c0 33 19 52 52 52h400c33 0 52 -19 52 -52v-560c0 -33 -19 -52 -52 -52zM544 100l-158 232l158 232c23 34 -27 66 -50 32l-142 -214l-143 218c-20 31 -70 -2 -50 -32l159 -236l-159 -236c-20 -30 30 -63 50 -32l143 217l142 -213
c23 -34 73 -2 50 32z" />
    <glyph glyph-name="oe" unicode="&#x153;" 
d="M552 0h-400c-33 0 -52 19 -52 52v560c0 33 19 52 52 52h400c33 0 52 -19 52 -52v-560c0 -33 -19 -52 -52 -52zM544 100l-158 232l158 232c23 34 -27 66 -50 32l-142 -214l-143 218c-20 31 -70 -2 -50 -32l159 -236l-159 -236c-20 -30 30 -63 50 -32l143 217l142 -213
c23 -34 73 -2 50 32z" />
    <glyph glyph-name="endash" unicode="&#x2013;" horiz-adv-x="363" 
d="M30 342v42c0 4 2 6 6 6h291c4 0 6 -2 6 -6v-42c0 -4 -2 -6 -6 -6h-291c-4 0 -6 2 -6 6z" />
    <glyph glyph-name="emdash" unicode="&#x2014;" horiz-adv-x="563" 
d="M30 342v42c0 4 2 6 6 6h491c4 0 6 -2 6 -6v-42c0 -4 -2 -6 -6 -6h-491c-4 0 -6 2 -6 6z" />
    <glyph glyph-name="quotedblleft" unicode="&#x201c;" horiz-adv-x="332" 
d="M145 503l-93 -42c-10 -4 -16 2 -16 9c-5 85 15 159 73 223c17 19 33 27 40 29s11 -2 7 -10c-18 -42 -25 -80 -25 -119c0 -28 8 -53 18 -73c3 -7 3 -14 -4 -17zM295 503l-93 -42c-10 -4 -16 2 -16 9c-5 85 15 159 73 223c17 19 33 27 40 29s11 -2 7 -10
c-18 -42 -25 -80 -25 -119c0 -28 8 -53 18 -73c3 -7 3 -14 -4 -17z" />
    <glyph glyph-name="quotedblright" unicode="&#x201d;" horiz-adv-x="343" 
d="M48 678l93 42c10 4 16 -2 16 -9c5 -85 -15 -159 -73 -223c-17 -19 -33 -27 -40 -29s-11 2 -7 10c18 42 25 80 25 119c0 28 -8 53 -18 73c-3 7 -3 14 4 17zM198 678l93 42c10 4 16 -2 16 -9c5 -85 -15 -159 -73 -223c-17 -19 -33 -27 -40 -29s-11 2 -7 10
c18 42 25 80 25 119c0 28 -8 53 -18 73c-3 7 -3 14 4 17z" />
    <glyph glyph-name="quoteleft" unicode="&#x2018;" horiz-adv-x="182" 
d="M145 503l-93 -42c-10 -4 -16 2 -16 9c-5 85 15 159 73 223c17 19 33 27 40 29s11 -2 7 -10c-18 -42 -25 -80 -25 -119c0 -28 8 -53 18 -73c3 -7 3 -14 -4 -17z" />
    <glyph glyph-name="quoteright" unicode="&#x2019;" horiz-adv-x="188" 
d="M48 678l93 42c10 4 16 -2 16 -9c5 -85 -15 -159 -73 -223c-17 -19 -33 -27 -40 -29s-11 2 -7 10c18 42 25 80 25 119c0 28 -8 53 -18 73c-3 7 -3 14 4 17z" />
    <glyph glyph-name="divide" unicode="&#xf7;" 
d="M552 0h-400c-33 0 -52 19 -52 52v560c0 33 19 52 52 52h400c33 0 52 -19 52 -52v-560c0 -33 -19 -52 -52 -52zM544 100l-158 232l158 232c23 34 -27 66 -50 32l-142 -214l-143 218c-20 31 -70 -2 -50 -32l159 -236l-159 -236c-20 -30 30 -63 50 -32l143 217l142 -213
c23 -34 73 -2 50 32z" />
    <glyph glyph-name="lozenge" unicode="&#x25ca;" 
d="M552 0h-400c-33 0 -52 19 -52 52v560c0 33 19 52 52 52h400c33 0 52 -19 52 -52v-560c0 -33 -19 -52 -52 -52zM544 100l-158 232l158 232c23 34 -27 66 -50 32l-142 -214l-143 218c-20 31 -70 -2 -50 -32l159 -236l-159 -236c-20 -30 30 -63 50 -32l143 217l142 -213
c23 -34 73 -2 50 32z" />
    <glyph glyph-name="ydieresis" unicode="&#xff;" 
d="M552 0h-400c-33 0 -52 19 -52 52v560c0 33 19 52 52 52h400c33 0 52 -19 52 -52v-560c0 -33 -19 -52 -52 -52zM544 100l-158 232l158 232c23 34 -27 66 -50 32l-142 -214l-143 218c-20 31 -70 -2 -50 -32l159 -236l-159 -236c-20 -30 30 -63 50 -32l143 217l142 -213
c23 -34 73 -2 50 32z" />
    <glyph glyph-name="Ydieresis" unicode="&#x178;" 
d="M552 0h-400c-33 0 -52 19 -52 52v560c0 33 19 52 52 52h400c33 0 52 -19 52 -52v-560c0 -33 -19 -52 -52 -52zM544 100l-158 232l158 232c23 34 -27 66 -50 32l-142 -214l-143 218c-20 31 -70 -2 -50 -32l159 -236l-159 -236c-20 -30 30 -63 50 -32l143 217l142 -213
c23 -34 73 -2 50 32z" />
    <glyph glyph-name="fraction" unicode="&#x2044;" 
d="M552 0h-400c-33 0 -52 19 -52 52v560c0 33 19 52 52 52h400c33 0 52 -19 52 -52v-560c0 -33 -19 -52 -52 -52zM544 100l-158 232l158 232c23 34 -27 66 -50 32l-142 -214l-143 218c-20 31 -70 -2 -50 -32l159 -236l-159 -236c-20 -30 30 -63 50 -32l143 217l142 -213
c23 -34 73 -2 50 32z" />
    <glyph glyph-name="Euro" unicode="&#x20ac;" 
d="M552 0h-400c-33 0 -52 19 -52 52v560c0 33 19 52 52 52h400c33 0 52 -19 52 -52v-560c0 -33 -19 -52 -52 -52zM544 100l-158 232l158 232c23 34 -27 66 -50 32l-142 -214l-143 218c-20 31 -70 -2 -50 -32l159 -236l-159 -236c-20 -30 30 -63 50 -32l143 217l142 -213
c23 -34 73 -2 50 32z" />
    <glyph glyph-name="guilsinglleft" unicode="&#x2039;" 
d="M552 0h-400c-33 0 -52 19 -52 52v560c0 33 19 52 52 52h400c33 0 52 -19 52 -52v-560c0 -33 -19 -52 -52 -52zM544 100l-158 232l158 232c23 34 -27 66 -50 32l-142 -214l-143 218c-20 31 -70 -2 -50 -32l159 -236l-159 -236c-20 -30 30 -63 50 -32l143 217l142 -213
c23 -34 73 -2 50 32z" />
    <glyph glyph-name="guilsinglright" unicode="&#x203a;" 
d="M552 0h-400c-33 0 -52 19 -52 52v560c0 33 19 52 52 52h400c33 0 52 -19 52 -52v-560c0 -33 -19 -52 -52 -52zM544 100l-158 232l158 232c23 34 -27 66 -50 32l-142 -214l-143 218c-20 31 -70 -2 -50 -32l159 -236l-159 -236c-20 -30 30 -63 50 -32l143 217l142 -213
c23 -34 73 -2 50 32z" />
    <glyph glyph-name="daggerdbl" unicode="&#x2021;" 
d="M552 0h-400c-33 0 -52 19 -52 52v560c0 33 19 52 52 52h400c33 0 52 -19 52 -52v-560c0 -33 -19 -52 -52 -52zM544 100l-158 232l158 232c23 34 -27 66 -50 32l-142 -214l-143 218c-20 31 -70 -2 -50 -32l159 -236l-159 -236c-20 -30 30 -63 50 -32l143 217l142 -213
c23 -34 73 -2 50 32z" />
    <glyph glyph-name="periodcentered" unicode="&#xb7;" 
d="M552 0h-400c-33 0 -52 19 -52 52v560c0 33 19 52 52 52h400c33 0 52 -19 52 -52v-560c0 -33 -19 -52 -52 -52zM544 100l-158 232l158 232c23 34 -27 66 -50 32l-142 -214l-143 218c-20 31 -70 -2 -50 -32l159 -236l-159 -236c-20 -30 30 -63 50 -32l143 217l142 -213
c23 -34 73 -2 50 32z" />
    <glyph glyph-name="quotesinglbase" unicode="&#x201a;" 
d="M552 0h-400c-33 0 -52 19 -52 52v560c0 33 19 52 52 52h400c33 0 52 -19 52 -52v-560c0 -33 -19 -52 -52 -52zM544 100l-158 232l158 232c23 34 -27 66 -50 32l-142 -214l-143 218c-20 31 -70 -2 -50 -32l159 -236l-159 -236c-20 -30 30 -63 50 -32l143 217l142 -213
c23 -34 73 -2 50 32z" />
    <glyph glyph-name="quotedblbase" unicode="&#x201e;" 
d="M552 0h-400c-33 0 -52 19 -52 52v560c0 33 19 52 52 52h400c33 0 52 -19 52 -52v-560c0 -33 -19 -52 -52 -52zM544 100l-158 232l158 232c23 34 -27 66 -50 32l-142 -214l-143 218c-20 31 -70 -2 -50 -32l159 -236l-159 -236c-20 -30 30 -63 50 -32l143 217l142 -213
c23 -34 73 -2 50 32z" />
    <glyph glyph-name="perthousand" unicode="&#x2030;" 
d="M552 0h-400c-33 0 -52 19 -52 52v560c0 33 19 52 52 52h400c33 0 52 -19 52 -52v-560c0 -33 -19 -52 -52 -52zM544 100l-158 232l158 232c23 34 -27 66 -50 32l-142 -214l-143 218c-20 31 -70 -2 -50 -32l159 -236l-159 -236c-20 -30 30 -63 50 -32l143 217l142 -213
c23 -34 73 -2 50 32z" />
    <glyph glyph-name="Acircumflex" unicode="&#xc2;" 
d="M552 0h-400c-33 0 -52 19 -52 52v560c0 33 19 52 52 52h400c33 0 52 -19 52 -52v-560c0 -33 -19 -52 -52 -52zM544 100l-158 232l158 232c23 34 -27 66 -50 32l-142 -214l-143 218c-20 31 -70 -2 -50 -32l159 -236l-159 -236c-20 -30 30 -63 50 -32l143 217l142 -213
c23 -34 73 -2 50 32z" />
    <glyph glyph-name="Ecircumflex" unicode="&#xca;" 
d="M552 0h-400c-33 0 -52 19 -52 52v560c0 33 19 52 52 52h400c33 0 52 -19 52 -52v-560c0 -33 -19 -52 -52 -52zM544 100l-158 232l158 232c23 34 -27 66 -50 32l-142 -214l-143 218c-20 31 -70 -2 -50 -32l159 -236l-159 -236c-20 -30 30 -63 50 -32l143 217l142 -213
c23 -34 73 -2 50 32z" />
    <glyph glyph-name="Aacute" unicode="&#xc1;" 
d="M552 0h-400c-33 0 -52 19 -52 52v560c0 33 19 52 52 52h400c33 0 52 -19 52 -52v-560c0 -33 -19 -52 -52 -52zM544 100l-158 232l158 232c23 34 -27 66 -50 32l-142 -214l-143 218c-20 31 -70 -2 -50 -32l159 -236l-159 -236c-20 -30 30 -63 50 -32l143 217l142 -213
c23 -34 73 -2 50 32z" />
    <glyph glyph-name="Edieresis" unicode="&#xcb;" 
d="M552 0h-400c-33 0 -52 19 -52 52v560c0 33 19 52 52 52h400c33 0 52 -19 52 -52v-560c0 -33 -19 -52 -52 -52zM544 100l-158 232l158 232c23 34 -27 66 -50 32l-142 -214l-143 218c-20 31 -70 -2 -50 -32l159 -236l-159 -236c-20 -30 30 -63 50 -32l143 217l142 -213
c23 -34 73 -2 50 32z" />
    <glyph glyph-name="Egrave" unicode="&#xc8;" 
d="M552 0h-400c-33 0 -52 19 -52 52v560c0 33 19 52 52 52h400c33 0 52 -19 52 -52v-560c0 -33 -19 -52 -52 -52zM544 100l-158 232l158 232c23 34 -27 66 -50 32l-142 -214l-143 218c-20 31 -70 -2 -50 -32l159 -236l-159 -236c-20 -30 30 -63 50 -32l143 217l142 -213
c23 -34 73 -2 50 32z" />
    <glyph glyph-name="Iacute" unicode="&#xcd;" 
d="M552 0h-400c-33 0 -52 19 -52 52v560c0 33 19 52 52 52h400c33 0 52 -19 52 -52v-560c0 -33 -19 -52 -52 -52zM544 100l-158 232l158 232c23 34 -27 66 -50 32l-142 -214l-143 218c-20 31 -70 -2 -50 -32l159 -236l-159 -236c-20 -30 30 -63 50 -32l143 217l142 -213
c23 -34 73 -2 50 32z" />
    <glyph glyph-name="Icircumflex" unicode="&#xce;" 
d="M552 0h-400c-33 0 -52 19 -52 52v560c0 33 19 52 52 52h400c33 0 52 -19 52 -52v-560c0 -33 -19 -52 -52 -52zM544 100l-158 232l158 232c23 34 -27 66 -50 32l-142 -214l-143 218c-20 31 -70 -2 -50 -32l159 -236l-159 -236c-20 -30 30 -63 50 -32l143 217l142 -213
c23 -34 73 -2 50 32z" />
    <glyph glyph-name="Idieresis" unicode="&#xcf;" 
d="M552 0h-400c-33 0 -52 19 -52 52v560c0 33 19 52 52 52h400c33 0 52 -19 52 -52v-560c0 -33 -19 -52 -52 -52zM544 100l-158 232l158 232c23 34 -27 66 -50 32l-142 -214l-143 218c-20 31 -70 -2 -50 -32l159 -236l-159 -236c-20 -30 30 -63 50 -32l143 217l142 -213
c23 -34 73 -2 50 32z" />
    <glyph glyph-name="Igrave" unicode="&#xcc;" 
d="M552 0h-400c-33 0 -52 19 -52 52v560c0 33 19 52 52 52h400c33 0 52 -19 52 -52v-560c0 -33 -19 -52 -52 -52zM544 100l-158 232l158 232c23 34 -27 66 -50 32l-142 -214l-143 218c-20 31 -70 -2 -50 -32l159 -236l-159 -236c-20 -30 30 -63 50 -32l143 217l142 -213
c23 -34 73 -2 50 32z" />
    <glyph glyph-name="Ocircumflex" unicode="&#xd4;" 
d="M552 0h-400c-33 0 -52 19 -52 52v560c0 33 19 52 52 52h400c33 0 52 -19 52 -52v-560c0 -33 -19 -52 -52 -52zM544 100l-158 232l158 232c23 34 -27 66 -50 32l-142 -214l-143 218c-20 31 -70 -2 -50 -32l159 -236l-159 -236c-20 -30 30 -63 50 -32l143 217l142 -213
c23 -34 73 -2 50 32z" />
    <glyph glyph-name="apple" unicode="&#xf8ff;" 
d="M552 0h-400c-33 0 -52 19 -52 52v560c0 33 19 52 52 52h400c33 0 52 -19 52 -52v-560c0 -33 -19 -52 -52 -52zM544 100l-158 232l158 232c23 34 -27 66 -50 32l-142 -214l-143 218c-20 31 -70 -2 -50 -32l159 -236l-159 -236c-20 -30 30 -63 50 -32l143 217l142 -213
c23 -34 73 -2 50 32z" />
    <glyph glyph-name="Ograve" unicode="&#xd2;" 
d="M552 0h-400c-33 0 -52 19 -52 52v560c0 33 19 52 52 52h400c33 0 52 -19 52 -52v-560c0 -33 -19 -52 -52 -52zM544 100l-158 232l158 232c23 34 -27 66 -50 32l-142 -214l-143 218c-20 31 -70 -2 -50 -32l159 -236l-159 -236c-20 -30 30 -63 50 -32l143 217l142 -213
c23 -34 73 -2 50 32z" />
    <glyph glyph-name="Uacute" unicode="&#xda;" 
d="M552 0h-400c-33 0 -52 19 -52 52v560c0 33 19 52 52 52h400c33 0 52 -19 52 -52v-560c0 -33 -19 -52 -52 -52zM544 100l-158 232l158 232c23 34 -27 66 -50 32l-142 -214l-143 218c-20 31 -70 -2 -50 -32l159 -236l-159 -236c-20 -30 30 -63 50 -32l143 217l142 -213
c23 -34 73 -2 50 32z" />
    <glyph glyph-name="Ucircumflex" unicode="&#xdb;" 
d="M552 0h-400c-33 0 -52 19 -52 52v560c0 33 19 52 52 52h400c33 0 52 -19 52 -52v-560c0 -33 -19 -52 -52 -52zM544 100l-158 232l158 232c23 34 -27 66 -50 32l-142 -214l-143 218c-20 31 -70 -2 -50 -32l159 -236l-159 -236c-20 -30 30 -63 50 -32l143 217l142 -213
c23 -34 73 -2 50 32z" />
    <glyph glyph-name="Ugrave" unicode="&#xd9;" 
d="M552 0h-400c-33 0 -52 19 -52 52v560c0 33 19 52 52 52h400c33 0 52 -19 52 -52v-560c0 -33 -19 -52 -52 -52zM544 100l-158 232l158 232c23 34 -27 66 -50 32l-142 -214l-143 218c-20 31 -70 -2 -50 -32l159 -236l-159 -236c-20 -30 30 -63 50 -32l143 217l142 -213
c23 -34 73 -2 50 32z" />
    <glyph glyph-name="dotlessi" unicode="&#x131;" 
d="M552 0h-400c-33 0 -52 19 -52 52v560c0 33 19 52 52 52h400c33 0 52 -19 52 -52v-560c0 -33 -19 -52 -52 -52zM544 100l-158 232l158 232c23 34 -27 66 -50 32l-142 -214l-143 218c-20 31 -70 -2 -50 -32l159 -236l-159 -236c-20 -30 30 -63 50 -32l143 217l142 -213
c23 -34 73 -2 50 32z" />
    <glyph glyph-name="circumflex" unicode="&#x2c6;" 
d="M552 0h-400c-33 0 -52 19 -52 52v560c0 33 19 52 52 52h400c33 0 52 -19 52 -52v-560c0 -33 -19 -52 -52 -52zM544 100l-158 232l158 232c23 34 -27 66 -50 32l-142 -214l-143 218c-20 31 -70 -2 -50 -32l159 -236l-159 -236c-20 -30 30 -63 50 -32l143 217l142 -213
c23 -34 73 -2 50 32z" />
    <glyph glyph-name="tilde" unicode="&#x2dc;" 
d="M552 0h-400c-33 0 -52 19 -52 52v560c0 33 19 52 52 52h400c33 0 52 -19 52 -52v-560c0 -33 -19 -52 -52 -52zM544 100l-158 232l158 232c23 34 -27 66 -50 32l-142 -214l-143 218c-20 31 -70 -2 -50 -32l159 -236l-159 -236c-20 -30 30 -63 50 -32l143 217l142 -213
c23 -34 73 -2 50 32z" />
    <glyph glyph-name="macron" unicode="&#xaf;" 
d="M552 0h-400c-33 0 -52 19 -52 52v560c0 33 19 52 52 52h400c33 0 52 -19 52 -52v-560c0 -33 -19 -52 -52 -52zM544 100l-158 232l158 232c23 34 -27 66 -50 32l-142 -214l-143 218c-20 31 -70 -2 -50 -32l159 -236l-159 -236c-20 -30 30 -63 50 -32l143 217l142 -213
c23 -34 73 -2 50 32z" />
    <glyph glyph-name="breve" unicode="&#x2d8;" 
d="M552 0h-400c-33 0 -52 19 -52 52v560c0 33 19 52 52 52h400c33 0 52 -19 52 -52v-560c0 -33 -19 -52 -52 -52zM544 100l-158 232l158 232c23 34 -27 66 -50 32l-142 -214l-143 218c-20 31 -70 -2 -50 -32l159 -236l-159 -236c-20 -30 30 -63 50 -32l143 217l142 -213
c23 -34 73 -2 50 32z" />
    <glyph glyph-name="dotaccent" unicode="&#x2d9;" 
d="M552 0h-400c-33 0 -52 19 -52 52v560c0 33 19 52 52 52h400c33 0 52 -19 52 -52v-560c0 -33 -19 -52 -52 -52zM544 100l-158 232l158 232c23 34 -27 66 -50 32l-142 -214l-143 218c-20 31 -70 -2 -50 -32l159 -236l-159 -236c-20 -30 30 -63 50 -32l143 217l142 -213
c23 -34 73 -2 50 32z" />
    <glyph glyph-name="ring" unicode="&#x2da;" 
d="M552 0h-400c-33 0 -52 19 -52 52v560c0 33 19 52 52 52h400c33 0 52 -19 52 -52v-560c0 -33 -19 -52 -52 -52zM544 100l-158 232l158 232c23 34 -27 66 -50 32l-142 -214l-143 218c-20 31 -70 -2 -50 -32l159 -236l-159 -236c-20 -30 30 -63 50 -32l143 217l142 -213
c23 -34 73 -2 50 32z" />
    <glyph glyph-name="cedilla" unicode="&#xb8;" 
d="M552 0h-400c-33 0 -52 19 -52 52v560c0 33 19 52 52 52h400c33 0 52 -19 52 -52v-560c0 -33 -19 -52 -52 -52zM544 100l-158 232l158 232c23 34 -27 66 -50 32l-142 -214l-143 218c-20 31 -70 -2 -50 -32l159 -236l-159 -236c-20 -30 30 -63 50 -32l143 217l142 -213
c23 -34 73 -2 50 32z" />
    <glyph glyph-name="hungarumlaut" unicode="&#x2dd;" 
d="M552 0h-400c-33 0 -52 19 -52 52v560c0 33 19 52 52 52h400c33 0 52 -19 52 -52v-560c0 -33 -19 -52 -52 -52zM544 100l-158 232l158 232c23 34 -27 66 -50 32l-142 -214l-143 218c-20 31 -70 -2 -50 -32l159 -236l-159 -236c-20 -30 30 -63 50 -32l143 217l142 -213
c23 -34 73 -2 50 32z" />
    <glyph glyph-name="ogonek" unicode="&#x2db;" 
d="M552 0h-400c-33 0 -52 19 -52 52v560c0 33 19 52 52 52h400c33 0 52 -19 52 -52v-560c0 -33 -19 -52 -52 -52zM544 100l-158 232l158 232c23 34 -27 66 -50 32l-142 -214l-143 218c-20 31 -70 -2 -50 -32l159 -236l-159 -236c-20 -30 30 -63 50 -32l143 217l142 -213
c23 -34 73 -2 50 32z" />
    <glyph glyph-name="caron" unicode="&#x2c7;" 
d="M552 0h-400c-33 0 -52 19 -52 52v560c0 33 19 52 52 52h400c33 0 52 -19 52 -52v-560c0 -33 -19 -52 -52 -52zM544 100l-158 232l158 232c23 34 -27 66 -50 32l-142 -214l-143 218c-20 31 -70 -2 -50 -32l159 -236l-159 -236c-20 -30 30 -63 50 -32l143 217l142 -213
c23 -34 73 -2 50 32z" />
    <glyph glyph-name="Sacute" unicode="&#x15a;" horiz-adv-x="401" 
d="M52 -13l8 189c0 10 11 12 14 1c20 -81 69 -138 131 -138c34 0 55 23 55 72c0 28 -11 61 -37 100l-128 199c-34 52 -59 111 -59 170c0 93 57 150 144 150c69 0 98 -34 136 -34c12 0 22 6 27 16c3 7 11 6 11 -1l-7 -165c0 -8 -10 -10 -13 -1c-20 61 -64 135 -135 135
c-32 0 -55 -24 -55 -57c0 -31 19 -62 36 -89l133 -207c35 -53 63 -120 63 -180c0 -114 -78 -157 -151 -157c-68 0 -97 26 -126 26c-19 0 -29 -10 -35 -29c-2 -8 -12 -6 -12 0zM109 781l109 127c27 31 65 35 86 8c22 -28 9 -63 -28 -81l-149 -76c-6 -3 -12 0 -16 6
c-5 6 -6 12 -2 16z" />
    <glyph glyph-name="Zacute" unicode="&#x179;" horiz-adv-x="413" 
d="M361 0h-337c-12 0 -13 13 -8 26l233 633c6 17 -1 21 -16 21h-68c-41 0 -78 -10 -102 -60l-17 -35c-2 -4 -5 -7 -9 -7c-5 0 -7 6 -6 14l17 118c1 7 5 10 12 10h330c12 0 13 -13 8 -26l-233 -633c-6 -17 1 -21 16 -21h75c43 0 80 13 108 61l20 35c3 4 6 7 10 7
c5 0 7 -5 5 -14l-26 -119c-2 -7 -5 -10 -12 -10zM129 781l109 127c27 31 65 35 86 8c22 -28 9 -63 -28 -81l-149 -76c-6 -3 -12 0 -16 6c-5 6 -6 12 -2 16z" />
    <glyph glyph-name="sacute" unicode="&#x15b;" horiz-adv-x="355" 
d="M48 -14l7 152c0 8 12 10 14 1c17 -62 58 -101 106 -101c31 0 46 23 46 53c0 20 -10 39 -31 70l-105 152c-28 41 -50 81 -50 126c0 71 50 119 127 119c58 0 78 -18 109 -18c11 0 19 3 23 9c3 5 11 5 11 -1l-7 -131c0 -6 -10 -7 -12 -1c-17 47 -52 96 -108 96
c-30 0 -43 -21 -43 -42c0 -20 14 -41 28 -62l110 -158c29 -41 53 -88 53 -134c0 -87 -69 -124 -134 -124c-57 0 -78 13 -103 13c-16 0 -24 -7 -29 -19c-3 -6 -12 -5 -12 0zM77 614l109 127c27 31 65 35 86 8c22 -28 9 -63 -28 -81l-149 -76c-6 -3 -12 0 -16 6
c-5 6 -6 12 -2 16z" />
    <glyph glyph-name="zacute" unicode="&#x17a;" horiz-adv-x="360" 
d="M313 0h-290c-10 0 -11 10 -7 20l192 475c5 13 -1 17 -13 17h-50c-35 0 -67 -8 -87 -46l-14 -27c-2 -3 -4 -5 -8 -5c-5 0 -8 4 -7 10l15 98c1 6 5 8 10 8h285c10 0 10 -10 6 -20l-191 -475c-5 -13 0 -16 13 -16h55c36 0 69 9 93 46l17 27c2 3 4 5 8 5c5 0 8 -4 6 -10
l-23 -99c-1 -6 -4 -8 -10 -8zM100 614l109 127c27 31 65 35 86 8c22 -28 9 -63 -28 -81l-149 -76c-6 -3 -12 0 -16 6c-5 6 -6 12 -2 16z" />
    <glyph glyph-name="Aogonek" unicode="&#x104;" horiz-adv-x="436" 
d="M450 -119c-56 -74 -178 -55 -178 35c0 36 22 70 46 84h-65c-4 0 -6 5 -2 8c22 13 29 22 25 42l-24 130c-1 4 -3 5 -7 5h-123c-4 0 -6 -1 -7 -5l-23 -130c-3 -20 3 -29 25 -42c4 -3 3 -8 -1 -8h-118c-4 0 -5 6 -1 8c19 12 25 17 29 35l123 617c5 27 0 39 -22 52
c-4 3 -3 8 1 8h140c6 0 10 -3 11 -9l131 -668c3 -18 10 -23 29 -35c4 -2 4 -8 0 -8h-52c-58 -47 -41 -139 48 -102c3 1 10 2 14 0c5 -2 6 -12 1 -17zM133 239h101c4 0 6 4 5 8l-47 268c-2 13 -13 13 -15 0l-49 -268c-1 -4 1 -8 5 -8z" />
    <glyph glyph-name="Zdotaccent" unicode="&#x17b;" horiz-adv-x="413" 
d="M361 0h-337c-12 0 -13 13 -8 26l233 633c6 17 -1 21 -16 21h-68c-41 0 -78 -10 -102 -60l-17 -35c-2 -4 -5 -7 -9 -7c-5 0 -7 6 -6 14l17 118c1 7 5 10 12 10h330c12 0 13 -13 8 -26l-233 -633c-6 -17 1 -21 16 -21h75c43 0 80 13 108 61l20 35c3 4 6 7 10 7
c5 0 7 -5 5 -14l-26 -119c-2 -7 -5 -10 -12 -10zM166 847c0 34 21 63 61 63s61 -29 61 -63s-21 -62 -61 -62s-61 28 -61 62z" />
    <glyph glyph-name="aogonek" unicode="&#x105;" horiz-adv-x="371" 
d="M382 -103c-49 -64 -155 -47 -155 31c0 31 20 61 41 72h-63c-4 0 -6 5 -2 8c22 13 29 22 25 42l-16 82c-1 3 -3 5 -7 5h-99c-4 0 -6 -2 -7 -5l-16 -82c-4 -20 3 -29 25 -42c4 -3 3 -8 -1 -8h-113c-4 0 -5 6 -1 8c19 12 25 17 29 35l98 447c6 27 0 39 -22 52c-4 3 -3 8 1 8
h133c5 0 8 -2 9 -7l108 -500c4 -18 10 -23 29 -35c4 -2 4 -8 0 -8h-51c-51 -41 -36 -121 41 -88c3 1 11 2 13 0c4 -2 5 -10 1 -15zM117 187h77c4 0 6 4 5 8l-35 181c-2 13 -13 13 -15 0l-37 -181c-1 -4 1 -8 5 -8z" />
    <glyph glyph-name="zdotaccent" unicode="&#x17c;" horiz-adv-x="360" 
d="M313 0h-290c-10 0 -11 10 -7 20l192 475c5 13 -1 17 -13 17h-50c-35 0 -67 -8 -87 -46l-14 -27c-2 -3 -4 -5 -8 -5c-5 0 -8 4 -7 10l15 98c1 6 5 8 10 8h285c10 0 10 -10 6 -20l-191 -475c-5 -13 0 -16 13 -16h55c36 0 69 9 93 46l17 27c2 3 4 5 8 5c5 0 8 -4 6 -10
l-23 -99c-1 -6 -4 -8 -10 -8zM145 679c0 34 21 63 61 63s61 -29 61 -63s-21 -62 -61 -62s-61 28 -61 62z" />
    <glyph glyph-name="Cacute" unicode="&#x106;" horiz-adv-x="407" 
d="M258 31c49 0 65 80 65 121c0 32 -6 53 -13 71c-9 22 8 17 21 9c28 -17 49 -51 49 -95c0 -85 -52 -147 -129 -147c-150 0 -211 188 -211 400c0 182 48 340 195 340c41 0 60 -11 82 -11c8 0 16 3 24 15c2 3 8 3 8 -1l4 -154c0 -8 -11 -8 -13 -2c-19 52 -38 112 -95 112
c-40 0 -63 -40 -63 -215v-208c0 -175 37 -235 76 -235zM128 781l109 127c27 31 65 35 86 8c22 -28 9 -63 -28 -81l-149 -76c-6 -3 -12 0 -16 6c-5 6 -6 12 -2 16z" />
    <glyph glyph-name="Eogonek" unicode="&#x118;" horiz-adv-x="410" 
d="M358 -119c-56 -74 -178 -55 -178 35c0 36 22 70 46 84h-179c-4 0 -5 6 -1 8c24 15 30 25 30 48v608c0 23 -6 33 -30 48c-4 2 -3 8 1 8h299c7 0 11 -3 12 -10l14 -108c1 -8 0 -14 -5 -14c-4 0 -6 3 -8 7l-14 25c-27 48 -63 60 -104 60h-13c-15 0 -22 -9 -22 -31v-174
c0 -40 6 -49 34 -49h4c19 0 41 10 52 45l8 26c3 9 6 18 13 18c6 0 8 -8 8 -19v-185c0 -11 -1 -19 -8 -19s-10 9 -13 18l-9 29c-11 35 -29 45 -51 45h-4c-28 0 -34 -9 -34 -49v-264c0 -22 5 -31 22 -31h13c43 0 77 11 108 57l17 25c3 4 6 7 10 7c5 0 7 -5 5 -14l-23 -105
c-2 -7 -5 -10 -12 -10h-51c-58 -47 -41 -139 48 -102c3 1 10 2 14 0c5 -2 6 -12 1 -17z" />
    <glyph glyph-name="Nacute" unicode="&#x143;" horiz-adv-x="563" 
d="M349 11l-191 425c-3 6 -10 4 -10 -2v-378c0 -23 6 -33 30 -48c4 -2 3 -8 -1 -8h-130c-4 0 -5 6 -1 8c24 15 30 25 30 48v608c0 23 -6 33 -30 48c-4 2 -3 8 1 8h108c9 0 14 -3 17 -11l191 -425c3 -6 10 -4 10 2v378c0 23 -6 33 -30 48c-4 2 -3 8 1 8h130c4 0 5 -6 1 -8
c-24 -15 -30 -25 -30 -48v-656c0 -5 -3 -8 -7 -8h-72c-9 0 -14 3 -17 11zM165 781l109 127c27 31 65 35 86 8c22 -28 9 -63 -28 -81l-149 -76c-6 -3 -12 0 -16 6c-5 6 -6 12 -2 16z" />
    <glyph glyph-name="cacute" unicode="&#x107;" horiz-adv-x="354" 
d="M221 32c40 0 51 53 51 88c0 29 -7 49 -13 62c-7 17 8 15 19 10c31 -13 50 -44 50 -81c0 -69 -45 -119 -114 -119c-123 0 -179 134 -179 306c0 149 46 260 166 260c35 0 50 -9 68 -9c7 0 14 3 20 12c2 3 9 3 9 -1l4 -126c0 -6 -11 -6 -13 -1c-14 32 -32 85 -74 85
c-31 0 -52 -30 -52 -156v-169c0 -123 29 -161 58 -161zM97 614l109 127c27 31 65 35 86 8c22 -28 9 -63 -28 -81l-149 -76c-6 -3 -12 0 -16 6c-5 6 -6 12 -2 16z" />
    <glyph glyph-name="eogonek" unicode="&#x119;" horiz-adv-x="351" 
d="M302 -103c-49 -64 -155 -47 -155 31c0 31 20 61 41 72h-156c-4 0 -5 6 -1 8c24 15 30 25 30 48v438c0 23 -6 33 -30 48c-4 2 -3 8 1 8h261c6 0 9 -2 10 -8l12 -90c1 -6 -1 -11 -5 -11s-6 3 -8 6l-12 19c-22 36 -51 46 -85 46h-7c-13 0 -19 -7 -19 -24v-121
c0 -31 7 -38 27 -38h1c16 0 35 8 44 35l6 20c2 7 6 13 12 13c5 0 7 -5 7 -13v-151c0 -9 -1 -14 -7 -14s-10 7 -12 14l-7 22c-9 27 -24 34 -43 34h-1c-20 0 -27 -6 -27 -37v-190c0 -17 5 -23 19 -23h9c36 0 63 8 89 43l14 19c2 3 6 6 9 6c4 0 7 -4 5 -11l-21 -88
c-1 -6 -4 -8 -10 -8h-46c-51 -41 -36 -121 41 -88c3 1 11 2 13 0c4 -2 5 -10 1 -15z" />
    <glyph glyph-name="nacute" unicode="&#x144;" horiz-adv-x="430" 
d="M148 539l151 -304c2 -5 8 -3 8 2v257c0 23 -6 33 -30 48c-4 2 -3 8 1 8h124c4 0 5 -6 1 -8c-24 -15 -30 -25 -30 -48v-488c0 -4 -3 -6 -6 -6h-66c-7 0 -11 2 -14 8l-152 309c-3 5 -9 3 -9 -1v-260c0 -23 6 -33 30 -48c4 -2 3 -8 -1 -8h-123c-4 0 -5 6 -1 8
c24 15 30 25 30 48v438c0 23 -6 33 -30 48c-4 2 -3 8 1 8h99c9 0 13 -3 17 -11zM127 614l109 127c27 31 65 35 86 8c22 -28 9 -63 -28 -81l-149 -76c-6 -3 -12 0 -16 6c-5 6 -6 12 -2 16z" />
    <glyph glyph-name="Lslash" unicode="&#x141;" horiz-adv-x="403" 
d="M27 332v42c0 4 2 6 6 6l43 19v265c0 23 -6 33 -30 48c-4 2 -3 8 1 8h188c4 0 5 -6 1 -8c-24 -15 -30 -25 -30 -48v-207l96 43c4 0 6 -2 6 -6v-42c0 -4 -2 -6 -6 -6l-96 -43v-332c0 -22 5 -31 22 -31h21c43 0 78 18 113 77l21 35c3 4 6 7 10 7c5 0 7 -5 5 -14l-32 -135
c-2 -7 -5 -10 -12 -10h-307c-4 0 -5 6 -1 8c24 15 30 25 30 48v289l-43 -19c-4 0 -6 2 -6 6z" />
    <glyph glyph-name="lslash" unicode="&#x142;" horiz-adv-x="344" 
d="M17 242v42c0 4 2 6 6 6l38 14v190c0 23 -6 33 -30 48c-4 2 -3 8 1 8h176c4 0 5 -6 1 -8c-24 -15 -30 -25 -30 -48v-145l83 32c4 0 6 -2 6 -6v-42c0 -4 -2 -6 -6 -6l-83 -32v-233c0 -17 4 -23 19 -23h15c36 0 64 13 93 58l18 27c2 3 5 6 9 6c5 0 8 -4 6 -11l-29 -111
c-1 -6 -4 -8 -10 -8h-268c-4 0 -5 6 -1 8c24 15 30 25 30 48v194l-38 -14c-4 0 -6 2 -6 6z" />
    <glyph glyph-name="Oacute" unicode="&#xd3;" horiz-adv-x="476" 
d="M238 34c36 0 56 57 56 232v198c0 175 -20 222 -56 222s-56 -47 -56 -222v-198c0 -175 20 -232 56 -232zM238 730c150 0 198 -178 198 -370s-48 -370 -198 -370s-198 178 -198 370s48 370 198 370zM139 781l109 127c27 31 65 35 86 8c22 -28 9 -63 -28 -81l-149 -76
c-6 -3 -12 0 -16 6c-5 6 -6 12 -2 16z" />
    <glyph glyph-name="oacute" unicode="&#xf3;" horiz-adv-x="406" 
d="M203 34c27 0 43 44 43 177v135c0 134 -16 170 -43 170s-43 -36 -43 -170v-135c0 -133 16 -177 43 -177zM203 558c127 0 168 -136 168 -283s-41 -283 -168 -283s-168 136 -168 283s41 283 168 283zM107 614l109 127c27 31 65 35 86 8c22 -28 9 -63 -28 -81l-149 -76
c-6 -3 -12 0 -16 6c-5 6 -6 12 -2 16z" />
    </font>
</defs>
</svg>
